<?xml version="1.0" encoding="utf-8"?>
<!-- Generator: Adobe Illustrator 16.0.0, SVG Export Plug-In . SVG Version: 6.00 Build 0)  -->
<!DOCTYPE svg PUBLIC "-//W3C//DTD SVG 1.1//EN" "http://www.w3.org/Graphics/SVG/1.1/DTD/svg11.dtd">
<svg version="1.1" id="Capa_1" xmlns="http://www.w3.org/2000/svg" xmlns:xlink="http://www.w3.org/1999/xlink" x="0px" y="0px"
	 width="177.292px" height="132px" viewBox="0 0 177.292 132" enable-background="new 0 0 177.292 132" xml:space="preserve">
<g>
	<rect x="25.798" y="33.736" width="18.82" height="66.083"/>
	<path d="M52.079,110.506c0,1.435-1.391,2.597-3.105,2.597H21.442c-1.715,0-3.105-1.162-3.105-2.597l0,0
		c0-1.434,1.391-2.597,3.105-2.597h27.531C50.688,107.909,52.079,109.072,52.079,110.506L52.079,110.506z"/>
	<path fill="#D00E1F" d="M48.3,104.178c0,1.435-1.078,2.597-2.41,2.597H24.526c-1.332,0-2.41-1.162-2.41-2.597l0,0
		c0-1.434,1.078-2.597,2.41-2.597H45.89C47.222,101.581,48.3,102.744,48.3,104.178L48.3,104.178z"/>
	<path d="M18.337,23.576c0-1.435,1.391-2.598,3.105-2.598h27.531c1.715,0,3.105,1.163,3.105,2.598l0,0
		c0,1.434-1.391,2.596-3.105,2.596H21.442C19.728,26.172,18.337,25.01,18.337,23.576L18.337,23.576z"/>
	<path fill="#D00E1F" d="M22.116,29.904c0-1.435,1.078-2.598,2.41-2.598H45.89c1.332,0,2.41,1.163,2.41,2.598l0,0
		c0,1.434-1.078,2.596-2.41,2.596H24.526C23.194,32.5,22.116,31.338,22.116,29.904L22.116,29.904z"/>
	<g>
		<path fill="#FFFFFF" d="M31.497,96.408c0,0.848-0.578,1.533-1.291,1.533l0,0c-0.713,0-1.293-0.686-1.293-1.533V37.518
			c0-0.848,0.58-1.533,1.293-1.533l0,0c0.713,0,1.291,0.686,1.291,1.533V96.408z"/>
		<path fill="#FFFFFF" d="M36.499,96.408c0,0.848-0.578,1.533-1.291,1.533l0,0c-0.713,0-1.291-0.686-1.291-1.533V37.518
			c0-0.848,0.578-1.533,1.291-1.533l0,0c0.713,0,1.291,0.686,1.291,1.533V96.408z"/>
		<path fill="#FFFFFF" d="M41.503,96.408c0,0.848-0.578,1.533-1.293,1.533l0,0c-0.713,0-1.291-0.686-1.291-1.533V37.518
			c0-0.848,0.578-1.533,1.291-1.533l0,0c0.715,0,1.293,0.686,1.293,1.533V96.408z"/>
	</g>
	<g>
		<path fill-rule="evenodd" clip-rule="evenodd" d="M88.204,109.506c3.947-1.62,7.896-3.24,11.844-4.86
			c-0.055-0.207-0.109-0.414-0.164-0.62c-2.846,0.729-5.875,1.059-8.494,2.276c-4.293,1.997-8.598,2.508-13.215,1.934
			c-3.264-0.405-6.568-0.468-10.227-0.707c0.07-6.055-1.932-11.215-6.439-15.306c1.736-1.556,3.344-2.746,4.631-4.215
			c1.455-1.659,2.941-3.429,3.822-5.413c0.801-1.803,1.773-2.881,3.617-3.54c5.428-1.944,10.82-3.996,16.184-6.118
			c1.424-0.563,2.398-0.536,3.461,0.684c1.783,2.05,3.729,3.957,6.176,6.52c-5.254,2.347-10.066,4.496-15.436,6.896
			c3.252-0.464,6.123-0.621,8.857-1.319c4.531-1.155,8.584-3.938,13.6-3.518c3.84,0.321,6.605,4.137,5.912,7.832
			c-0.314,1.678,0.264,4.245,1.436,5.342c3.338,3.125,2.068,6.511,1.35,9.934c-0.121,0.576-0.887,1.157-1.492,1.471
			c-7.215,3.738-15.109,4.668-23.035,5.322c-0.801,0.065-1.697-0.993-2.549-1.531C88.095,110.214,88.149,109.86,88.204,109.506z"/>
	</g>
	<path fill-rule="evenodd" clip-rule="evenodd" fill="#FFFFFF" d="M129.54,13.577c0,0,10.75-19.124,1.75-3.687"/>
	<g>
		<path fill="#D00E1F" d="M137.136,109.364c0-0.962,0.207-1.741,0.463-1.741h4.111c0.256,0,0.463,0.779,0.463,1.741l0,0
			c0,0.961-0.207,1.742-0.463,1.742h-4.111C137.343,111.106,137.136,110.325,137.136,109.364L137.136,109.364z"/>
		<path fill="#D00E1F" d="M137.136,105.339c0-0.963,0.207-1.741,0.463-1.741h4.111c0.256,0,0.463,0.778,0.463,1.741l0,0
			c0,0.961-0.207,1.74-0.463,1.74h-4.111C137.343,107.079,137.136,106.3,137.136,105.339L137.136,105.339z"/>
		<path fill="#D00E1F" d="M137.136,101.313c0-0.963,0.207-1.742,0.463-1.742h4.111c0.256,0,0.463,0.779,0.463,1.742l0,0
			c0,0.962-0.207,1.741-0.463,1.741h-4.111C137.343,103.054,137.136,102.274,137.136,101.313L137.136,101.313z"/>
		<path fill="#D00E1F" d="M137.136,97.285c0-0.961,0.207-1.742,0.463-1.742h4.111c0.256,0,0.463,0.781,0.463,1.742l0,0
			c0,0.962-0.207,1.743-0.463,1.743h-4.111C137.343,99.028,137.136,98.247,137.136,97.285L137.136,97.285z"/>
		<path fill="#D00E1F" d="M137.136,93.259c0-0.962,0.207-1.741,0.463-1.741h4.111c0.256,0,0.463,0.779,0.463,1.741l0,0
			c0,0.961-0.207,1.742-0.463,1.742h-4.111C137.343,95.001,137.136,94.22,137.136,93.259L137.136,93.259z"/>
		<rect x="138.136" y="28.607" width="2.773" height="62.75"/>
		<polygon points="137.896,27.223 139.571,23.373 141.151,27.223 		"/>
		<path fill="#D00E1F" d="M136.011,35.126c0,0-8.645-2.3-9.875-12.239c2.584-10.646-4.365-1.909-4.035,13.162
			c0.332,15.071,9.652,23.319,11.057,23.429s-5.215-12.943,2.096-14.631C137.405,45.014,135.854,37.12,136.011,35.126z"/>
		<path fill="#D00E1F" d="M142.569,35.631c0,0,8.643-2.301,9.875-12.24c-2.584-10.646,4.365-1.908,4.033,13.162
			c-0.33,15.072-9.652,23.32-11.055,23.43c-1.404,0.109,5.215-12.943-2.098-14.631C141.173,45.518,142.724,37.625,142.569,35.631z"
			/>
	</g>
	<path d="M34.864,129.104l-1-0.014l0.025-1.847l1,0.014L34.864,129.104z M34.931,124.257l-1-0.014l0.041-3l1,0.014L34.931,124.257z
		 M35.015,118.258l-1-0.014l0.041-3l1,0.014L35.015,118.258z M35.097,112.258l-1-0.014l0.041-3l1,0.014L35.097,112.258z
		 M35.181,106.259l-1-0.014l0.041-3l1,0.014L35.181,106.259z M35.263,100.26l-1-0.014l0.043-3l1,0.014L35.263,100.26z M35.347,94.26
		l-1-0.014l0.041-3l1,0.014L35.347,94.26z M35.429,88.261l-1-0.014l0.043-3l1,0.014L35.429,88.261z M35.513,82.261l-1-0.014l0.041-3
		l1,0.014L35.513,82.261z M35.595,76.262l-1-0.014l0.043-3l1,0.014L35.595,76.262z M35.679,70.263l-1-0.014l0.041-3l1,0.014
		L35.679,70.263z M35.763,64.263l-1-0.014l0.041-3l1,0.014L35.763,64.263z M35.845,58.264l-1-0.014l0.041-3l1,0.014L35.845,58.264z
		 M35.929,52.264l-1-0.014l0.041-3l1,0.014L35.929,52.264z M36.011,46.265l-1-0.014l0.041-3l1,0.014L36.011,46.265z M36.095,40.266
		l-1-0.014l0.041-3l1,0.014L36.095,40.266z M36.177,34.266l-1-0.014l0.043-3l1,0.014L36.177,34.266z M36.261,28.267l-1-0.014
		l0.041-3l1,0.014L36.261,28.267z M36.343,22.267l-1-0.014l0.043-3l1,0.014L36.343,22.267z M36.427,16.268l-1-0.014l0.041-3l1,0.014
		L36.427,16.268z M36.509,10.268l-1-0.014l0.043-3l1,0.014L36.509,10.268z"/>
	<path d="M139.79,127.501h-1v-1.843h1V127.501z M139.79,122.658h-1v-3h1V122.658z M139.79,116.658h-1v-3h1V116.658z M139.79,110.658
		h-1v-3h1V110.658z M139.79,104.658h-1v-3h1V104.658z M139.79,98.658h-1v-3h1V98.658z M139.79,92.658h-1v-3h1V92.658z
		 M139.79,86.658h-1v-3h1V86.658z M139.79,80.658h-1v-3h1V80.658z M139.79,74.658h-1v-3h1V74.658z M139.79,68.658h-1v-3h1V68.658z
		 M139.79,62.658h-1v-3h1V62.658z M139.79,56.658h-1v-3h1V56.658z M139.79,50.658h-1v-3h1V50.658z M139.79,44.658h-1v-3h1V44.658z
		 M139.79,38.658h-1v-3h1V38.658z M139.79,32.658h-1v-3h1V32.658z M139.79,26.658h-1v-3h1V26.658z M139.79,20.658h-1v-3h1V20.658z
		 M139.79,14.658h-1v-3h1V14.658z M139.79,8.658h-1v-3h1V8.658z"/>
	<path d="M87.806,129.647h-1v-1.844h1V129.647z M87.806,124.803h-1v-3h1V124.803z M87.806,118.803h-1v-3h1V118.803z M87.806,112.803
		h-1v-3h1V112.803z M87.806,106.803h-1v-3h1V106.803z M87.806,100.803h-1v-3h1V100.803z M87.806,94.803h-1v-3h1V94.803z
		 M87.806,88.803h-1v-3h1V88.803z M87.806,82.803h-1v-3h1V82.803z M87.806,76.803h-1v-3h1V76.803z M87.806,70.803h-1v-3h1V70.803z
		 M87.806,64.803h-1v-3h1V64.803z M87.806,58.803h-1v-3h1V58.803z M87.806,52.803h-1v-3h1V52.803z M87.806,46.803h-1v-3h1V46.803z
		 M87.806,40.803h-1v-3h1V40.803z M87.806,34.803h-1v-3h1V34.803z M87.806,28.803h-1v-3h1V28.803z M87.806,22.803h-1v-3h1V22.803z
		 M87.806,16.803h-1v-3h1V16.803z M87.806,10.803h-1v-3h1V10.803z"/>
	<path d="M158.489,15.196l-3-0.005l0.002-1l3,0.005L158.489,15.196z M152.489,15.186l-3-0.005l0.002-1l3,0.005L152.489,15.186z
		 M146.489,15.176l-3-0.005l0.002-1l3,0.005L146.489,15.176z M140.489,15.166l-3-0.005l0.002-1l3,0.005L140.489,15.166z
		 M134.489,15.156l-3-0.005l0.002-1l3,0.005L134.489,15.156z M128.489,15.146l-3-0.005l0.002-1l3,0.005L128.489,15.146z
		 M122.489,15.135l-3-0.005l0.002-1l3,0.005L122.489,15.135z M116.489,15.125l-3-0.005l0.002-1l3,0.005L116.489,15.125z
		 M110.489,15.115l-3-0.005l0.002-1l3,0.005L110.489,15.115z M104.489,15.104l-3-0.005l0.002-1l3,0.005L104.489,15.104z
		 M98.489,15.094l-3-0.005l0.002-1l3,0.005L98.489,15.094z M92.489,15.084l-3-0.005l0.002-1l3,0.005L92.489,15.084z M86.489,15.074
		l-3-0.005l0.002-1l3,0.005L86.489,15.074z M80.489,15.064l-3-0.005l0.002-1l3,0.005L80.489,15.064z M74.489,15.054l-3-0.005
		l0.002-1l3,0.005L74.489,15.054z M68.489,15.043l-3-0.005l0.002-1l3,0.005L68.489,15.043z M62.489,15.033l-3-0.005l0.002-1l3,0.005
		L62.489,15.033z M56.489,15.023l-3-0.005l0.002-1l3,0.005L56.489,15.023z M50.489,15.013l-3-0.005l0.002-1l3,0.005L50.489,15.013z
		 M44.489,15.002l-3-0.005l0.002-1l3,0.005L44.489,15.002z M38.489,14.993l-3-0.005l0.002-1l3,0.005L38.489,14.993z M32.489,14.982
		l-3-0.005l0.002-1l3,0.005L32.489,14.982z M26.489,14.972l-3-0.005l0.002-1l3,0.005L26.489,14.972z M20.489,14.962l-1.988-0.003
		l0.002-1l1.988,0.003L20.489,14.962z"/>
	<path d="M158.958,118.137h-3v-1h3V118.137z M152.958,118.137h-3v-1h3V118.137z M146.958,118.137h-3v-1h3V118.137z M140.958,118.137
		h-3v-1h3V118.137z M134.958,118.137h-3v-1h3V118.137z M128.958,118.137h-3v-1h3V118.137z M122.958,118.137h-3v-1h3V118.137z
		 M116.958,118.137h-3v-1h3V118.137z M110.958,118.137h-3v-1h3V118.137z M104.958,118.137h-3v-1h3V118.137z M98.958,118.137h-3v-1h3
		V118.137z M92.958,118.137h-3v-1h3V118.137z M86.958,118.137h-3v-1h3V118.137z M80.958,118.137h-3v-1h3V118.137z M74.958,118.137
		h-3v-1h3V118.137z M68.958,118.137h-3v-1h3V118.137z M62.958,118.137h-3v-1h3V118.137z M56.958,118.137h-3v-1h3V118.137z
		 M50.958,118.137h-3v-1h3V118.137z M44.958,118.137h-3v-1h3V118.137z M38.958,118.137h-3v-1h3V118.137z M32.958,118.137h-3v-1h3
		V118.137z M26.958,118.137h-3v-1h3V118.137z M20.958,118.137h-1.996v-1h1.996V118.137z"/>
	<path d="M158.495,66.285h-3v-1h3V66.285z M152.495,66.285h-3v-1h3V66.285z M146.495,66.285h-3v-1h3V66.285z M140.495,66.285h-3v-1
		h3V66.285z M134.495,66.285h-3v-1h3V66.285z M128.495,66.285h-3v-1h3V66.285z M122.495,66.285h-3v-1h3V66.285z M116.495,66.285h-3
		v-1h3V66.285z M110.495,66.285h-3v-1h3V66.285z M104.495,66.285h-3v-1h3V66.285z M98.495,66.285h-3v-1h3V66.285z M92.495,66.285h-3
		v-1h3V66.285z M86.495,66.285h-3v-1h3V66.285z M80.495,66.285h-3v-1h3V66.285z M74.495,66.285h-3v-1h3V66.285z M68.495,66.285h-3
		v-1h3V66.285z M62.495,66.285h-3v-1h3V66.285z M56.495,66.285h-3v-1h3V66.285z M50.495,66.285h-3v-1h3V66.285z M44.495,66.285h-3
		v-1h3V66.285z M38.495,66.285h-3v-1h3V66.285z M32.495,66.285h-3v-1h3V66.285z M26.495,66.285h-3v-1h3V66.285z M20.495,66.285
		h-1.996v-1h1.996V66.285z"/>
</g>
</svg>
