<?xml version="1.0" encoding="utf-8"?>
<!-- Generator: Adobe Illustrator 16.0.0, SVG Export Plug-In . SVG Version: 6.00 Build 0)  -->
<!DOCTYPE svg PUBLIC "-//W3C//DTD SVG 1.1//EN" "http://www.w3.org/Graphics/SVG/1.1/DTD/svg11.dtd">
<svg version="1.1" id="Capa_1" xmlns="http://www.w3.org/2000/svg" xmlns:xlink="http://www.w3.org/1999/xlink" x="0px" y="0px"
	 width="177.292px" height="132px" viewBox="0 0 177.292 132" enable-background="new 0 0 177.292 132" xml:space="preserve">
<g>
	<g>
		<path fill-rule="evenodd" clip-rule="evenodd" fill="#262324" d="M44.827,67.156c7.51-7.455,14.682-14.513,23.578-19.452
			c14.936-8.293,29.502-6.863,43.621,2.039c7.334,4.623,13.402,10.701,19.213,17.393c-10.678,10.633-21.275,21.13-36.883,23.76
			c-11.688,1.969-22.389-0.897-31.668-8.109C56.493,77.972,50.841,72.459,44.827,67.156z M70.942,66.857
			c-0.002,9.655,7.767,17.616,17.203,17.634c9.457,0.017,17.291-7.906,17.32-17.52c0.029-9.779-7.756-17.752-17.318-17.735
			C78.697,49.254,70.944,57.194,70.942,66.857z"/>
		<path fill-rule="evenodd" clip-rule="evenodd" fill="#FFFFFF" d="M70.942,66.857c0.002-9.664,7.755-17.604,17.205-17.621
			c9.563-0.017,17.348,7.956,17.318,17.735c-0.029,9.613-7.863,17.537-17.32,17.52C78.709,84.473,70.94,76.512,70.942,66.857z
			 M97.999,65.767c-2.867,1.639-5.523,1.573-7.813-0.562c-2.617-2.438-2.459-5.363-0.861-8.35
			c-5.593-0.771-10.693,3.462-11.046,9.017c-0.398,6.294,4.103,11.31,10.065,11.218C94.212,77,98.578,72.019,97.999,65.767z"/>
		<path fill-rule="evenodd" clip-rule="evenodd" fill="#C41C48" d="M97.999,65.767c0.579,6.252-3.787,11.232-9.654,11.324
			c-5.963,0.091-10.464-4.924-10.065-11.218c0.353-5.554,5.453-9.788,11.046-9.017c-1.598,2.986-1.756,5.911,0.861,8.35
			C92.476,67.34,95.132,67.406,97.999,65.767z"/>
	</g>
	<g>
		<rect x="43.348" y="20.554" width="1.5" height="1"/>
		<path d="M40.774,21.554h-2.573v-1h2.573V21.554z M35.628,21.554h-2.572v-1h2.572V21.554z"/>
		<polygon points="29.482,22.554 28.482,22.554 28.482,20.554 30.482,20.554 30.482,21.554 29.482,21.554 		"/>
		<path d="M29.482,106.087h-1v-2.983h1V106.087z M29.482,100.121h-1v-2.983h1V100.121z M29.482,94.154h-1V91.17h1V94.154z
			 M29.482,88.187h-1v-2.983h1V88.187z M29.482,82.22h-1v-2.983h1V82.22z M29.482,76.254h-1v-2.983h1V76.254z M29.482,70.287h-1
			v-2.983h1V70.287z M29.482,64.32h-1v-2.983h1V64.32z M29.482,58.354h-1v-2.983h1V58.354z M29.482,52.387h-1v-2.983h1V52.387z
			 M29.482,46.42h-1v-2.983h1V46.42z M29.482,40.454h-1V37.47h1V40.454z M29.482,34.487h-1v-2.983h1V34.487z M29.482,28.521h-1
			v-2.983h1V28.521z"/>
		<polygon points="30.482,111.07 28.482,111.07 28.482,109.07 29.482,109.07 29.482,110.07 30.482,110.07 		"/>
		<path d="M40.774,111.07h-2.572v-1h2.572V111.07z M35.629,111.07h-2.573v-1h2.573V111.07z"/>
		<rect x="43.348" y="110.07" width="1.5" height="1"/>
	</g>
	<g>
		<rect x="133.817" y="110.07" width="1.5" height="1"/>
		<path d="M145.609,111.07h-2.573v-1h2.573V111.07z M140.464,111.07h-2.573v-1h2.573V111.07z"/>
		<polygon points="150.182,111.07 148.182,111.07 148.182,110.07 149.182,110.07 149.182,109.07 150.182,109.07 		"/>
		<path d="M150.182,106.087h-1v-2.983h1V106.087z M150.182,100.12h-1v-2.983h1V100.12z M150.182,94.154h-1V91.17h1V94.154z
			 M150.182,88.187h-1v-2.983h1V88.187z M150.182,82.22h-1v-2.983h1V82.22z M150.182,76.253h-1V73.27h1V76.253z M150.182,70.287h-1
			v-2.983h1V70.287z M150.182,64.32h-1v-2.983h1V64.32z M150.182,58.354h-1V55.37h1V58.354z M150.182,52.387h-1v-2.983h1V52.387z
			 M150.182,46.42h-1v-2.983h1V46.42z M150.182,40.454h-1V37.47h1V40.454z M150.182,34.487h-1v-2.983h1V34.487z M150.182,28.521h-1
			v-2.983h1V28.521z"/>
		<polygon points="150.182,22.554 149.182,22.554 149.182,21.554 148.182,21.554 148.182,20.554 150.182,20.554 		"/>
		<path d="M145.609,21.554h-2.573v-1h2.573V21.554z M140.464,21.554h-2.573v-1h2.573V21.554z"/>
		<rect x="133.817" y="20.554" width="1.5" height="1"/>
	</g>
	<path d="M159.968,103.172h-1.994v-1h1.994V103.172z M154.974,103.172h-3v-1h3V103.172z M148.974,103.172h-3v-1h3V103.172z
		 M142.974,103.172h-3v-1h3V103.172z M136.974,103.172h-3v-1h3V103.172z M130.974,103.172h-3v-1h3V103.172z M124.974,103.172h-3v-1
		h3V103.172z M118.974,103.172h-3v-1h3V103.172z M112.974,103.172h-3v-1h3V103.172z M106.974,103.172h-3v-1h3V103.172z
		 M100.974,103.172h-3v-1h3V103.172z M94.974,103.172h-3v-1h3V103.172z M88.974,103.172h-3v-1h3V103.172z M82.974,103.172h-3v-1h3
		V103.172z M76.974,103.172h-3v-1h3V103.172z M70.974,103.172h-3v-1h3V103.172z M64.974,103.172h-3v-1h3V103.172z M58.974,103.172
		h-3v-1h3V103.172z M52.974,103.172h-3v-1h3V103.172z M46.974,103.172h-3v-1h3V103.172z M40.974,103.172h-3v-1h3V103.172z
		 M34.974,103.172h-3v-1h3V103.172z M28.974,103.172h-3v-1h3V103.172z M22.974,103.172h-3v-1h3V103.172z"/>
	<path d="M159.968,29.314h-1.994v-1h1.994V29.314z M154.974,29.314h-3v-1h3V29.314z M148.974,29.314h-3v-1h3V29.314z
		 M142.974,29.314h-3v-1h3V29.314z M136.974,29.314h-3v-1h3V29.314z M130.974,29.314h-3v-1h3V29.314z M124.974,29.314h-3v-1h3
		V29.314z M118.974,29.314h-3v-1h3V29.314z M112.974,29.314h-3v-1h3V29.314z M106.974,29.314h-3v-1h3V29.314z M100.974,29.314h-3v-1
		h3V29.314z M94.974,29.314h-3v-1h3V29.314z M88.974,29.314h-3v-1h3V29.314z M82.974,29.314h-3v-1h3V29.314z M76.974,29.314h-3v-1h3
		V29.314z M70.974,29.314h-3v-1h3V29.314z M64.974,29.314h-3v-1h3V29.314z M58.974,29.314h-3v-1h3V29.314z M52.974,29.314h-3v-1h3
		V29.314z M46.974,29.314h-3v-1h3V29.314z M40.974,29.314h-3v-1h3V29.314z M34.974,29.314h-3v-1h3V29.314z M28.974,29.314h-3v-1h3
		V29.314z M22.974,29.314h-3v-1h3V29.314z"/>
	<path d="M44.181,127.13h-1v-3h1V127.13z M44.181,121.13h-1v-3h1V121.13z M44.181,115.13h-1v-3h1V115.13z M44.181,109.13h-1v-3h1
		V109.13z M44.181,103.13h-1v-3h1V103.13z M44.181,97.13h-1v-3h1V97.13z M44.181,91.13h-1v-3h1V91.13z M44.181,85.13h-1v-3h1V85.13z
		 M44.181,79.13h-1v-3h1V79.13z M44.181,73.13h-1v-3h1V73.13z M44.181,67.13h-1v-3h1V67.13z M44.181,61.13h-1v-3h1V61.13z
		 M44.181,55.13h-1v-3h1V55.13z M44.181,49.13h-1v-3h1V49.13z M44.181,43.13h-1v-3h1V43.13z M44.181,37.13h-1v-3h1V37.13z
		 M44.181,31.13h-1v-3h1V31.13z M44.181,25.13h-1v-3h1V25.13z M44.181,19.13h-1v-3h1V19.13z M44.181,13.13h-1v-3h1V13.13z
		 M44.181,7.13h-1v-3h1V7.13z"/>
	<path d="M133.64,127.13h-1v-3h1V127.13z M133.64,121.13h-1v-3h1V121.13z M133.64,115.13h-1v-3h1V115.13z M133.64,109.13h-1v-3h1
		V109.13z M133.64,103.13h-1v-3h1V103.13z M133.64,97.13h-1v-3h1V97.13z M133.64,91.13h-1v-3h1V91.13z M133.64,85.13h-1v-3h1V85.13z
		 M133.64,79.13h-1v-3h1V79.13z M133.64,73.13h-1v-3h1V73.13z M133.64,67.13h-1v-3h1V67.13z M133.64,61.13h-1v-3h1V61.13z
		 M133.64,55.13h-1v-3h1V55.13z M133.64,49.13h-1v-3h1V49.13z M133.64,43.13h-1v-3h1V43.13z M133.64,37.13h-1v-3h1V37.13z
		 M133.64,31.13h-1v-3h1V31.13z M133.64,25.13h-1v-3h1V25.13z M133.64,19.13h-1v-3h1V19.13z M133.64,13.13h-1v-3h1V13.13z
		 M133.64,7.13h-1v-3h1V7.13z"/>
	<path d="M87.909,110.493l-0.283-0.001l0.006-1l0.277,0.001c0.896,0,1.801-0.028,2.688-0.082l0.061,0.998
		C89.751,110.464,88.826,110.493,87.909,110.493z M84.596,110.371c-1.001-0.074-2.016-0.184-3.014-0.327l0.141-0.99
		c0.977,0.14,1.968,0.247,2.947,0.32L84.596,110.371z M93.676,110.12l-0.129-0.991c0.975-0.127,1.959-0.29,2.924-0.484l0.197,0.98
		C95.681,109.824,94.674,109.99,93.676,110.12z M78.596,109.51c-0.984-0.21-1.974-0.459-2.942-0.738l0.277-0.961
		c0.946,0.272,1.913,0.515,2.874,0.721L78.596,109.51z M99.618,108.926l-0.264-0.965c0.95-0.26,1.903-0.557,2.83-0.881l0.33,0.944
		C101.565,108.356,100.592,108.659,99.618,108.926z M72.771,107.834c-0.951-0.347-1.899-0.729-2.816-1.137l0.406-0.914
		c0.896,0.399,1.822,0.773,2.752,1.112L72.771,107.834z M105.337,106.926l-0.395-0.919c0.907-0.39,1.809-0.813,2.68-1.261
		l0.457,0.89C107.188,106.094,106.265,106.528,105.337,106.926z M67.225,105.368c-0.884-0.468-1.77-0.978-2.632-1.513l0.527-0.85
		c0.843,0.523,1.709,1.021,2.573,1.479L67.225,105.368z M110.727,104.161l-0.518-0.856c0.845-0.509,1.68-1.053,2.483-1.617
		l0.574,0.819C112.444,103.083,111.59,103.64,110.727,104.161z M62.074,102.166c-0.813-0.585-1.62-1.21-2.4-1.857l0.639-0.77
		c0.763,0.633,1.553,1.244,2.346,1.815L62.074,102.166z M115.686,100.683l-0.627-0.778c0.763-0.615,1.517-1.268,2.241-1.94
		l0.68,0.733C117.238,99.386,116.467,100.054,115.686,100.683z M57.407,98.292c-0.727-0.692-1.44-1.42-2.123-2.165l0.736-0.676
		c0.668,0.729,1.366,1.44,2.076,2.117L57.407,98.292z M120.132,96.561l-0.729-0.686c0.675-0.717,1.333-1.466,1.957-2.228
		l0.773,0.634C121.496,95.06,120.822,95.827,120.132,96.561z M53.313,93.822c-0.628-0.787-1.237-1.605-1.81-2.433l0.822-0.569
		c0.56,0.809,1.155,1.609,1.769,2.378L53.313,93.822z M123.975,91.87l-0.814-0.58c0.568-0.797,1.118-1.629,1.636-2.474l0.854,0.522
		C125.119,90.203,124.556,91.055,123.975,91.87z M49.867,88.839c-0.516-0.867-1.006-1.76-1.459-2.656l0.893-0.451
		c0.442,0.876,0.922,1.749,1.426,2.596L49.867,88.839z M127.146,86.698l-0.887-0.463c0.458-0.877,0.889-1.777,1.281-2.676l0.916,0.4
		C128.055,84.879,127.613,85.801,127.146,86.698z M47.136,83.433c-0.39-0.924-0.753-1.876-1.08-2.829l0.945-0.325
		c0.32,0.931,0.676,1.862,1.057,2.765L47.136,83.433z M129.574,81.136l-0.941-0.336c0.33-0.926,0.633-1.876,0.899-2.824l0.963,0.271
		C130.223,79.216,129.913,80.188,129.574,81.136z M45.173,77.701c-0.26-0.972-0.488-1.966-0.681-2.956l0.982-0.19
		c0.188,0.966,0.411,1.938,0.665,2.888L45.173,77.701z M131.214,75.3l-0.979-0.203c0.2-0.966,0.369-1.949,0.502-2.921l0.99,0.135
		C131.593,73.305,131.42,74.311,131.214,75.3z M44.018,71.751c-0.123-0.992-0.214-2.008-0.27-3.02l0.998-0.056
		c0.055,0.989,0.144,1.983,0.264,2.953L44.018,71.751z M132.035,69.295l-0.998-0.068c0.066-0.979,0.101-1.976,0.101-2.962h1
		C132.138,67.273,132.104,68.293,132.035,69.295z M44.685,65.711l-1-0.013c0.013-1.009,0.061-2.028,0.142-3.029l0.996,0.081
		C44.743,63.729,44.697,64.725,44.685,65.711z M131.098,64.416c-0.041-0.986-0.116-1.98-0.225-2.956l0.994-0.11
		c0.11,0.998,0.188,2.016,0.23,3.024L131.098,64.416z M45.159,59.805l-0.988-0.147c0.147-0.993,0.334-1.996,0.552-2.982l0.977,0.216
		C45.486,57.855,45.305,58.835,45.159,59.805z M130.446,58.527c-0.175-0.969-0.386-1.944-0.627-2.896l0.969-0.245
		c0.247,0.975,0.463,1.972,0.643,2.964L130.446,58.527z M46.438,54.021l-0.959-0.283c0.284-0.962,0.606-1.931,0.958-2.877
		l0.938,0.348C47.031,52.134,46.717,53.08,46.438,54.021z M128.994,52.784c-0.305-0.932-0.648-1.868-1.02-2.783l0.926-0.376
		c0.381,0.936,0.731,1.894,1.045,2.848L128.994,52.784z M48.505,48.464l-0.912-0.412c0.415-0.918,0.868-1.833,1.347-2.721
		l0.881,0.475C49.353,46.672,48.91,47.567,48.505,48.464z M126.766,47.298c-0.433-0.884-0.901-1.764-1.392-2.614l0.865-0.5
		c0.502,0.87,0.981,1.77,1.425,2.674L126.766,47.298z M51.313,43.242l-0.846-0.533c0.538-0.853,1.111-1.698,1.706-2.51l0.807,0.59
		C52.4,41.583,51.84,42.408,51.313,43.242z M123.806,42.17c-0.551-0.818-1.135-1.626-1.736-2.401l0.789-0.613
		c0.616,0.792,1.214,1.619,1.777,2.456L123.806,42.17z M54.812,38.455l-0.766-0.644c0.646-0.77,1.33-1.527,2.031-2.253l0.719,0.694
		C56.111,36.962,55.443,37.703,54.812,38.455z M120.173,37.491c-0.655-0.734-1.345-1.455-2.049-2.143l0.699-0.715
		c0.72,0.704,1.425,1.441,2.096,2.192L120.173,37.491z M58.926,34.19l-0.67-0.742c0.752-0.68,1.532-1.338,2.318-1.956l0.617,0.786
		C60.424,32.882,59.662,33.525,58.926,34.19z M115.936,33.349c-0.749-0.639-1.53-1.259-2.322-1.845l0.596-0.804
		c0.81,0.599,1.608,1.234,2.375,1.888L115.936,33.349z M63.58,30.526L63.018,29.7c0.83-0.566,1.692-1.112,2.561-1.621l0.506,0.862
		C65.234,29.439,64.393,29.973,63.58,30.526z M111.172,29.821c-0.833-0.532-1.692-1.041-2.554-1.511l0.48-0.878
		c0.881,0.482,1.76,1.002,2.612,1.546L111.172,29.821z M68.689,27.533l-0.445-0.896c0.904-0.449,1.832-0.872,2.758-1.254
		l0.383,0.924C70.479,26.681,69.572,27.093,68.689,27.533z M105.969,26.976c-0.899-0.413-1.82-0.799-2.738-1.147l0.355-0.935
		c0.938,0.356,1.881,0.751,2.801,1.174L105.969,26.976z M74.159,25.268l-0.318-0.948c0.96-0.321,1.938-0.612,2.907-0.863L77,24.424
		C76.052,24.67,75.097,24.954,74.159,25.268z M100.421,24.874c-0.941-0.284-1.905-0.539-2.866-0.758l0.223-0.975
		c0.982,0.224,1.97,0.485,2.933,0.775L100.421,24.874z M79.894,23.777l-0.184-0.982c0.991-0.186,2-0.339,2.998-0.456l0.115,0.993
		C81.849,23.445,80.863,23.595,79.894,23.777z M94.646,23.558c-0.974-0.152-1.964-0.273-2.942-0.358l0.086-0.996
		c1.002,0.087,2.015,0.21,3.011,0.366L94.646,23.558z M85.777,23.087l-0.049-0.999c1.004-0.049,2.022-0.064,3.033-0.045l-0.02,1
		C87.753,23.024,86.76,23.04,85.777,23.087z"/>
</g>
</svg>
