<?xml version="1.0" encoding="utf-8"?>
<!-- Generator: Adobe Illustrator 16.0.0, SVG Export Plug-In . SVG Version: 6.00 Build 0)  -->
<!DOCTYPE svg PUBLIC "-//W3C//DTD SVG 1.1//EN" "http://www.w3.org/Graphics/SVG/1.1/DTD/svg11.dtd">
<svg version="1.1" id="Capa_1" xmlns="http://www.w3.org/2000/svg" xmlns:xlink="http://www.w3.org/1999/xlink" x="0px" y="0px"
	 width="177.292px" height="132px" viewBox="0 0 177.292 132" enable-background="new 0 0 177.292 132" xml:space="preserve">
<g>
	<g>
		<text transform="matrix(1 0 0 1 50.3428 100.2554)" fill="#D00E1F" font-family="'BodoniMT'" font-size="108.3752">G</text>
	</g>
	<g>
		<rect x="43.115" y="19.179" width="1.5" height="1"/>
		<path d="M40.542,20.179h-2.573v-1h2.573V20.179z M35.396,20.179h-2.572v-1h2.572V20.179z"/>
		<polygon points="29.25,21.179 28.25,21.179 28.25,19.179 30.25,19.179 30.25,20.179 29.25,20.179 		"/>
		<path d="M29.25,104.711h-1v-2.983h1V104.711z M29.25,98.744h-1v-2.983h1V98.744z M29.25,92.778h-1v-2.983h1V92.778z M29.25,86.811
			h-1v-2.983h1V86.811z M29.25,80.845h-1v-2.983h1V80.845z M29.25,74.878h-1v-2.983h1V74.878z M29.25,68.912h-1v-2.983h1V68.912z
			 M29.25,62.945h-1v-2.983h1V62.945z M29.25,56.979h-1v-2.983h1V56.979z M29.25,51.012h-1v-2.983h1V51.012z M29.25,45.045h-1
			v-2.983h1V45.045z M29.25,39.079h-1v-2.983h1V39.079z M29.25,33.112h-1v-2.983h1V33.112z M29.25,27.146h-1v-2.983h1V27.146z"/>
		<polygon points="30.25,109.694 28.25,109.694 28.25,107.694 29.25,107.694 29.25,108.694 30.25,108.694 		"/>
		<path d="M40.542,109.694H37.97v-1h2.572V109.694z M35.396,109.694h-2.573v-1h2.573V109.694z"/>
		<rect x="43.115" y="108.694" width="1.5" height="1"/>
	</g>
	<g>
		<rect x="133.584" y="108.694" width="1.5" height="1"/>
		<path d="M145.376,109.694h-2.572v-1h2.572V109.694z M140.23,109.694h-2.573v-1h2.573V109.694z"/>
		<polygon points="149.949,109.694 147.949,109.694 147.949,108.694 148.949,108.694 148.949,107.694 149.949,107.694 		"/>
		<path d="M149.949,104.71h-1v-2.983h1V104.71z M149.949,98.744h-1v-2.983h1V98.744z M149.949,92.777h-1v-2.983h1V92.777z
			 M149.949,86.811h-1v-2.983h1V86.811z M149.949,80.844h-1v-2.983h1V80.844z M149.949,74.878h-1v-2.983h1V74.878z M149.949,68.911
			h-1v-2.983h1V68.911z M149.949,62.945h-1v-2.983h1V62.945z M149.949,56.978h-1v-2.983h1V56.978z M149.949,51.012h-1v-2.983h1
			V51.012z M149.949,45.045h-1v-2.983h1V45.045z M149.949,39.079h-1v-2.983h1V39.079z M149.949,33.112h-1v-2.983h1V33.112z
			 M149.949,27.146h-1v-2.983h1V27.146z"/>
		<polygon points="149.949,21.179 148.949,21.179 148.949,20.179 147.949,20.179 147.949,19.179 149.949,19.179 		"/>
		<path d="M145.376,20.179h-2.573v-1h2.573V20.179z M140.229,20.179h-2.572v-1h2.572V20.179z"/>
		<rect x="133.584" y="19.179" width="1.5" height="1"/>
	</g>
	<path d="M159.735,101.795h-1.994v-1h1.994V101.795z M154.741,101.795h-3v-1h3V101.795z M148.741,101.795h-3v-1h3V101.795z
		 M142.741,101.795h-3v-1h3V101.795z M136.741,101.795h-3v-1h3V101.795z M130.741,101.795h-3v-1h3V101.795z M124.741,101.795h-3v-1
		h3V101.795z M118.741,101.795h-3v-1h3V101.795z M112.741,101.795h-3v-1h3V101.795z M106.741,101.795h-3v-1h3V101.795z
		 M100.741,101.795h-3v-1h3V101.795z M94.741,101.795h-3v-1h3V101.795z M88.741,101.795h-3v-1h3V101.795z M82.741,101.795h-3v-1h3
		V101.795z M76.741,101.795h-3v-1h3V101.795z M70.741,101.795h-3v-1h3V101.795z M64.741,101.795h-3v-1h3V101.795z M58.741,101.795
		h-3v-1h3V101.795z M52.741,101.795h-3v-1h3V101.795z M46.741,101.795h-3v-1h3V101.795z M40.741,101.795h-3v-1h3V101.795z
		 M34.741,101.795h-3v-1h3V101.795z M28.741,101.795h-3v-1h3V101.795z M22.741,101.795h-3v-1h3V101.795z"/>
	<path d="M159.735,27.939h-1.994v-1h1.994V27.939z M154.741,27.939h-3v-1h3V27.939z M148.741,27.939h-3v-1h3V27.939z
		 M142.741,27.939h-3v-1h3V27.939z M136.741,27.939h-3v-1h3V27.939z M130.741,27.939h-3v-1h3V27.939z M124.741,27.939h-3v-1h3
		V27.939z M118.741,27.939h-3v-1h3V27.939z M112.741,27.939h-3v-1h3V27.939z M106.741,27.939h-3v-1h3V27.939z M100.741,27.939h-3v-1
		h3V27.939z M94.741,27.939h-3v-1h3V27.939z M88.741,27.939h-3v-1h3V27.939z M82.741,27.939h-3v-1h3V27.939z M76.741,27.939h-3v-1h3
		V27.939z M70.741,27.939h-3v-1h3V27.939z M64.741,27.939h-3v-1h3V27.939z M58.741,27.939h-3v-1h3V27.939z M52.741,27.939h-3v-1h3
		V27.939z M46.741,27.939h-3v-1h3V27.939z M40.741,27.939h-3v-1h3V27.939z M34.741,27.939h-3v-1h3V27.939z M28.741,27.939h-3v-1h3
		V27.939z M22.741,27.939h-3v-1h3V27.939z"/>
	<path d="M53.31,125.756h-1v-3h1V125.756z M53.31,119.756h-1v-3h1V119.756z M53.31,113.756h-1v-3h1V113.756z M53.31,107.756h-1v-3h1
		V107.756z M53.31,101.756h-1v-3h1V101.756z M53.31,95.756h-1v-3h1V95.756z M53.31,89.756h-1v-3h1V89.756z M53.31,83.756h-1v-3h1
		V83.756z M53.31,77.756h-1v-3h1V77.756z M53.31,71.756h-1v-3h1V71.756z M53.31,65.756h-1v-3h1V65.756z M53.31,59.756h-1v-3h1
		V59.756z M53.31,53.756h-1v-3h1V53.756z M53.31,47.756h-1v-3h1V47.756z M53.31,41.756h-1v-3h1V41.756z M53.31,35.756h-1v-3h1
		V35.756z M53.31,29.756h-1v-3h1V29.756z M53.31,23.756h-1v-3h1V23.756z M53.31,17.756h-1v-3h1V17.756z M53.31,11.756h-1v-3h1
		V11.756z M53.31,5.756h-1v-3h1V5.756z"/>
	<path d="M127.167,125.756h-1v-3h1V125.756z M127.167,119.756h-1v-3h1V119.756z M127.167,113.756h-1v-3h1V113.756z M127.167,107.756
		h-1v-3h1V107.756z M127.167,101.756h-1v-3h1V101.756z M127.167,95.756h-1v-3h1V95.756z M127.167,89.756h-1v-3h1V89.756z
		 M127.167,83.756h-1v-3h1V83.756z M127.167,77.756h-1v-3h1V77.756z M127.167,71.756h-1v-3h1V71.756z M127.167,65.756h-1v-3h1
		V65.756z M127.167,59.756h-1v-3h1V59.756z M127.167,53.756h-1v-3h1V53.756z M127.167,47.756h-1v-3h1V47.756z M127.167,41.756h-1v-3
		h1V41.756z M127.167,35.756h-1v-3h1V35.756z M127.167,29.756h-1v-3h1V29.756z M127.167,23.756h-1v-3h1V23.756z M127.167,17.756h-1
		v-3h1V17.756z M127.167,11.756h-1v-3h1V11.756z M127.167,5.756h-1v-3h1V5.756z"/>
</g>
</svg>
