<?xml version="1.0" encoding="utf-8"?>
<!-- Generator: Adobe Illustrator 16.0.0, SVG Export Plug-In . SVG Version: 6.00 Build 0)  -->
<!DOCTYPE svg PUBLIC "-//W3C//DTD SVG 1.1//EN" "http://www.w3.org/Graphics/SVG/1.1/DTD/svg11.dtd">
<svg version="1.1" id="Capa_1" xmlns="http://www.w3.org/2000/svg" xmlns:xlink="http://www.w3.org/1999/xlink" x="0px" y="0px"
	 width="177.292px" height="132px" viewBox="0 0 177.292 132" enable-background="new 0 0 177.292 132" xml:space="preserve">
<g>
	<path d="M160.223,110.912h-3v-1h3V110.912z M154.223,110.912h-3v-1h3V110.912z M148.223,110.912h-3v-1h3V110.912z M142.223,110.912
		h-3v-1h3V110.912z M136.223,110.912h-3v-1h3V110.912z M130.223,110.912h-3v-1h3V110.912z M124.223,110.912h-3v-1h3V110.912z
		 M118.223,110.912h-3v-1h3V110.912z M112.223,110.912h-3v-1h3V110.912z M106.223,110.912h-3v-1h3V110.912z M100.223,110.912h-3v-1
		h3V110.912z M94.223,110.912h-3v-1h3V110.912z M88.223,110.912h-3v-1h3V110.912z M82.223,110.912h-3v-1h3V110.912z M76.223,110.912
		h-3v-1h3V110.912z M70.223,110.912h-3v-1h3V110.912z M64.223,110.912h-3v-1h3V110.912z M58.223,110.912h-3v-1h3V110.912z
		 M52.223,110.912h-3v-1h3V110.912z M46.223,110.912h-3v-1h3V110.912z M40.223,110.912h-3v-1h3V110.912z M34.223,110.912h-3v-1h3
		V110.912z M28.223,110.912h-3v-1h3V110.912z M22.223,110.912h-3v-1h3V110.912z"/>
	<path d="M157.365,27.778h-3v-1h3V27.778z M151.365,27.778h-3v-1h3V27.778z M145.365,27.778h-3v-1h3V27.778z M139.365,27.778h-3v-1
		h3V27.778z M133.365,27.778h-3v-1h3V27.778z M127.365,27.778h-3v-1h3V27.778z M121.365,27.778h-3v-1h3V27.778z M115.365,27.778h-3
		v-1h3V27.778z M109.365,27.778h-3v-1h3V27.778z M103.365,27.778h-3v-1h3V27.778z M97.365,27.778h-3v-1h3V27.778z M91.365,27.778h-3
		v-1h3V27.778z M85.365,27.778h-3v-1h3V27.778z M79.365,27.778h-3v-1h3V27.778z M73.365,27.778h-3v-1h3V27.778z M67.365,27.778h-3
		v-1h3V27.778z M61.365,27.778h-3v-1h3V27.778z M55.365,27.778h-3v-1h3V27.778z M49.365,27.778h-3v-1h3V27.778z M43.365,27.778h-3
		v-1h3V27.778z M37.365,27.778h-3v-1h3V27.778z M31.365,27.778h-3v-1h3V27.778z M25.365,27.778h-3v-1h3V27.778z M19.365,27.778h-3
		v-1h3V27.778z"/>
	<g>
		<rect x="49.857" y="66.52" fill="#1E1D1D" width="71.248" height="24.432"/>
		<rect x="51.631" y="91.629" fill="#1E1D1D" width="71.25" height="17.144"/>
		<g>
			<rect x="43.719" y="82.045" fill="#1E1D1D" width="13.166" height="26.728"/>
			<path fill="#FFFFFF" d="M57.385,109.272H43.219V81.545h14.166V109.272z M44.219,108.272h12.166V82.545H44.219V108.272z"/>
		</g>
		<g>
			<rect x="114.074" y="82.045" fill="#1E1D1D" width="13.006" height="26.728"/>
			<path fill="#FFFFFF" d="M127.58,109.272h-14.006V81.545h14.006V109.272z M114.574,108.272h12.006V82.545h-12.006V108.272z"/>
		</g>
		<rect x="28.967" y="46.708" fill="#1E1D1D" width="2.51" height="59.098"/>
		<polygon fill="#D00E1F" points="15.275,45.207 25.188,29.006 36.168,29.006 45.166,45.207 		"/>
		<path fill="#1E1D1D" d="M37.637,107.765c0,0.557-0.451,1.008-1.008,1.008H22.443c-0.557,0-1.008-0.451-1.008-1.008l0,0
			c0-0.557,0.451-1.008,1.008-1.008h14.186C37.186,106.757,37.637,107.208,37.637,107.765L37.637,107.765z"/>
		<path fill="#1E1D1D" d="M164.172,108.337h-33.85V29.58h33.85V108.337z M133.322,105.337h27.85V32.58h-27.85V105.337z"/>
		<rect x="131.822" y="47.204" fill="#1E1D1D" width="29.664" height="2.568"/>
		<rect x="131.822" y="66.383" fill="#1E1D1D" width="29.664" height="2.569"/>
		<rect x="131.822" y="85.564" fill="#1E1D1D" width="29.664" height="2.567"/>
		<rect x="152.232" y="53.629" fill="#1E1D1D" width="2.848" height="11.979"/>
		<rect x="155.793" y="53.629" fill="#1E1D1D" width="2.848" height="11.979"/>
		<rect x="159.178" y="53.629" fill="#1E1D1D" width="1.779" height="11.979"/>
		<rect x="152.232" y="73.595" fill="#1E1D1D" width="2.848" height="11.192"/>
		<rect x="155.793" y="72.808" fill="#D00E1F" width="2.848" height="11.979"/>
		<rect x="159.178" y="72.808" fill="#1E1D1D" width="1.779" height="11.979"/>
		<rect x="143.684" y="73.595" fill="#D00E1F" width="2.848" height="11.192"/>
		<rect x="147.156" y="71.655" fill="#1E1D1D" width="2.313" height="13.132"/>
		<rect x="149.916" y="72.808" fill="#D00E1F" width="1.779" height="11.979"/>
		<polygon fill="#D00E1F" points="137.83,84.843 134.982,84.725 135.287,72.751 138.133,72.87 		"/>
		<rect x="138.607" y="74.165" fill="#1E1D1D" width="2.314" height="10.622"/>
		<rect x="141.367" y="72.808" fill="#1E1D1D" width="1.779" height="11.979"/>
		<polygon fill="#D00E1F" points="147.393,65.48 145.715,64.07 150.838,54.055 152.514,55.463 		"/>
		<rect x="133.936" y="95.5" fill="#1E1D1D" width="8.73" height="3.054"/>
		<rect x="133.936" y="99.32" fill="#1E1D1D" width="9.344" height="3.055"/>
		<rect x="133.936" y="102.95" fill="#1E1D1D" width="9.344" height="1.909"/>
		<rect x="133.936" y="89.274" fill="#1E1D1D" width="9.344" height="3.055"/>
		<rect x="133.936" y="92.904" fill="#1E1D1D" width="9.344" height="1.909"/>
		<rect x="144.43" y="92.904" fill="#D00E1F" width="9.611" height="11.955"/>
		<rect x="155.08" y="90.802" fill="#1E1D1D" width="5.877" height="14.058"/>
		<path fill="#D00E1F" d="M90.215,48.348c-1.633,0-3.424-0.871-4.674-2.02c-0.91-0.838-3.057-0.446-5.889,1.074
			c-2.443,1.312-5.176,0.331-7.17-0.383c-0.352-0.126-0.686-0.245-0.994-0.344c-1.182-0.372-1.934,0.637-1.939,0.647
			c0.049-0.081,0.148-0.364,0.025-0.703l-0.92,0.338l-0.32,0.969l-0.645-1.323c0.283-0.876,2.125-2.56,4.402-1.834
			c0.332,0.104,0.688,0.232,1.064,0.367c1.734,0.621,3.893,1.392,5.549,0.504c3.732-2.005,6.564-2.276,8.189-0.785
			c1.318,1.212,3.215,1.811,4.143,1.312c1.191-0.644,4.727-2.063,6.73-0.914c1.201,0.687,3.369,0.979,4.148,0.56
			c0.859-0.465,1.504-0.381,1.891-0.229c0.545,0.214,0.865,0.664,0.984,1.014l-1.893,0.645c0.076,0.223,0.25,0.224,0.252,0.22
			c0,0-0.088,0.005-0.285,0.11c-1.537,0.832-4.443,0.359-6.092-0.584c-0.832-0.476-3.256,0.113-4.787,0.938
			C91.445,48.219,90.842,48.348,90.215,48.348z"/>
		<path fill="#D00E1F" d="M103.865,40.566c0,0-6.217-0.172-5.875-5.99h5.855L103.865,40.566z"/>
		<path fill="#1E1D1D" d="M100.602,32.832c-0.254,0-0.471-0.193-0.496-0.451c-0.027-0.275,0.174-0.52,0.449-0.546l4.107-0.4
			c0.268-0.023,0.52,0.174,0.547,0.449c0.025,0.274-0.176,0.519-0.449,0.546l-4.107,0.4
			C100.635,32.831,100.619,32.832,100.602,32.832z"/>
		<path fill="#D00E1F" d="M94.256,40.863c-0.182,0-0.357-0.1-0.447-0.273c-0.125-0.246-0.025-0.548,0.221-0.672l3.23-1.639
			c0.25-0.125,0.547-0.026,0.674,0.22c0.125,0.246,0.025,0.547-0.221,0.672l-3.23,1.639C94.408,40.847,94.332,40.863,94.256,40.863z
			"/>
		<path fill="#D00E1F" d="M97.666,43.194c-0.117,0-0.232-0.04-0.326-0.121c-0.211-0.181-0.232-0.496-0.053-0.705
			c0.391-0.453,1.461-1.71,1.713-2.082c0.154-0.229,0.467-0.289,0.695-0.133c0.229,0.154,0.287,0.466,0.133,0.694
			c-0.338,0.495-1.725,2.105-1.783,2.174C97.945,43.136,97.805,43.194,97.666,43.194z"/>
		<path fill="#D00E1F" d="M101.813,44.15c-0.277,0-0.5-0.224-0.5-0.5v-2.318c0-0.276,0.223-0.5,0.5-0.5c0.275,0,0.5,0.224,0.5,0.5
			v2.318C102.313,43.927,102.088,44.15,101.813,44.15z"/>
		<path fill="#D00E1F" d="M77.719,51.219c-0.775,0-1.646-0.183-2.717-0.672c-2.434-1.113-4.369-0.32-4.389-0.313l-0.389-0.921
			c0.096-0.041,2.363-0.97,5.193,0.324c2.139,0.976,3.199,0.566,4.809-0.053c0.238-0.092,0.486-0.187,0.746-0.281
			c2.174-0.79,4.291-0.148,4.865,0.434l-0.711,0.702c-0.197-0.196-1.879-0.898-3.813-0.196c-0.256,0.093-0.496,0.186-0.729,0.275
			C79.641,50.883,78.768,51.219,77.719,51.219z"/>
		<path fill="#D00E1F" d="M87.924,52.437c-1.834,0-3.34-0.469-3.434-0.499l0.303-0.953c0.033,0.011,3.219,0.995,5.752,0.011
			c2.723-1.059,4.871-1.894,6.814-0.698c1.773,1.094,3.463,0.826,3.479,0.823l0.166,0.986c-0.082,0.016-2.08,0.331-4.17-0.958
			c-1.447-0.892-3.111-0.315-5.926,0.778C89.926,52.31,88.881,52.437,87.924,52.437z"/>
		<path fill="#D00E1F" d="M92.818,37.561c-0.172-0.055-0.311-0.203-0.344-0.396c-0.043-0.272,0.141-0.53,0.412-0.574L96.463,36
			c0.273-0.044,0.527,0.139,0.574,0.411c0.045,0.273-0.139,0.53-0.41,0.575l-3.574,0.591C92.969,37.59,92.891,37.584,92.818,37.561z
			"/>
		<path fill="#1E1D1D" d="M108.459,58.114H64.018V30.08h44.441V58.114z M66.018,56.114h40.441V32.08H66.018V56.114z"/>
		<path fill="#1E1D1D" d="M105.609,55.541H66.867V32.777h38.742V55.541z M68.867,53.541h34.742V34.777H68.867V53.541z"/>
	</g>
	<path d="M29.033,128.022h-1v-1.843h1V128.022z M29.033,123.18h-1v-3h1V123.18z M29.033,117.18h-1v-3h1V117.18z M29.033,111.18h-1
		v-3h1V111.18z M29.033,105.18h-1v-3h1V105.18z M29.033,99.18h-1v-3h1V99.18z M29.033,93.18h-1v-3h1V93.18z M29.033,87.18h-1v-3h1
		V87.18z M29.033,81.18h-1v-3h1V81.18z M29.033,75.18h-1v-3h1V75.18z M29.033,69.18h-1v-3h1V69.18z M29.033,63.18h-1v-3h1V63.18z
		 M29.033,57.18h-1v-3h1V57.18z M29.033,51.18h-1v-3h1V51.18z M29.033,45.18h-1v-3h1V45.18z M29.033,39.18h-1v-3h1V39.18z
		 M29.033,33.18h-1v-3h1V33.18z M29.033,27.18h-1v-3h1V27.18z M29.033,21.18h-1v-3h1V21.18z M29.033,15.18h-1v-3h1V15.18z
		 M29.033,9.18h-1v-3h1V9.18z"/>
	<path d="M148.107,128.022h-1v-1.843h1V128.022z M148.107,123.18h-1v-3h1V123.18z M148.107,117.18h-1v-3h1V117.18z M148.107,111.18
		h-1v-3h1V111.18z M148.107,105.18h-1v-3h1V105.18z M148.107,99.18h-1v-3h1V99.18z M148.107,93.18h-1v-3h1V93.18z M148.107,87.18h-1
		v-3h1V87.18z M148.107,81.18h-1v-3h1V81.18z M148.107,75.18h-1v-3h1V75.18z M148.107,69.18h-1v-3h1V69.18z M148.107,63.18h-1v-3h1
		V63.18z M148.107,57.18h-1v-3h1V57.18z M148.107,51.18h-1v-3h1V51.18z M148.107,45.18h-1v-3h1V45.18z M148.107,39.18h-1v-3h1V39.18
		z M148.107,33.18h-1v-3h1V33.18z M148.107,27.18h-1v-3h1V27.18z M148.107,21.18h-1v-3h1V21.18z M148.107,15.18h-1v-3h1V15.18z
		 M148.107,9.18h-1v-3h1V9.18z"/>
	<path d="M86.068,128.022h-1v-1.843h1V128.022z M86.068,123.18h-1v-3h1V123.18z M86.068,117.18h-1v-3h1V117.18z M86.068,111.18h-1
		v-3h1V111.18z M86.068,105.18h-1v-3h1V105.18z M86.068,99.18h-1v-3h1V99.18z M86.068,93.18h-1v-3h1V93.18z M86.068,87.18h-1v-3h1
		V87.18z M86.068,81.18h-1v-3h1V81.18z M86.068,75.18h-1v-3h1V75.18z M86.068,69.18h-1v-3h1V69.18z M86.068,63.18h-1v-3h1V63.18z
		 M86.068,57.18h-1v-3h1V57.18z M86.068,51.18h-1v-3h1V51.18z M86.068,45.18h-1v-3h1V45.18z M86.068,39.18h-1v-3h1V39.18z
		 M86.068,33.18h-1v-3h1V33.18z M86.068,27.18h-1v-3h1V27.18z M86.068,21.18h-1v-3h1V21.18z M86.068,15.18h-1v-3h1V15.18z
		 M86.068,9.18h-1v-3h1V9.18z"/>
</g>
</svg>
