<?xml version="1.0" encoding="utf-8"?>
<!-- Generator: Adobe Illustrator 16.0.0, SVG Export Plug-In . SVG Version: 6.00 Build 0)  -->
<!DOCTYPE svg PUBLIC "-//W3C//DTD SVG 1.1//EN" "http://www.w3.org/Graphics/SVG/1.1/DTD/svg11.dtd">
<svg version="1.1" id="Capa_1" xmlns="http://www.w3.org/2000/svg" xmlns:xlink="http://www.w3.org/1999/xlink" x="0px" y="0px"
	 width="177.292px" height="132px" viewBox="0 0 177.292 132" enable-background="new 0 0 177.292 132" xml:space="preserve">
<g>
	<path d="M89.862,125.126h-1v-3h1V125.126z M89.862,119.126h-1v-3h1V119.126z M89.862,113.126h-1v-3h1V113.126z M89.862,107.126h-1
		v-3h1V107.126z M89.862,101.126h-1v-3h1V101.126z M89.862,95.126h-1v-3h1V95.126z M89.862,89.126h-1v-3h1V89.126z M89.862,83.126
		h-1v-3h1V83.126z M89.862,77.126h-1v-3h1V77.126z M89.862,71.126h-1v-3h1V71.126z M89.862,65.126h-1v-3h1V65.126z M89.862,59.126
		h-1v-3h1V59.126z M89.862,53.126h-1v-3h1V53.126z M89.862,47.126h-1v-3h1V47.126z M89.862,41.126h-1v-3h1V41.126z M89.862,35.126
		h-1v-3h1V35.126z M89.862,29.126h-1v-3h1V29.126z M89.862,23.126h-1v-3h1V23.126z M89.862,17.126h-1v-3h1V17.126z M89.862,11.126
		h-1v-3h1V11.126z M89.862,5.126h-1v-3h1V5.126z"/>
	<path d="M153.827,111.585h-3v-1h3V111.585z M147.827,111.585h-3v-1h3V111.585z M141.827,111.585h-3v-1h3V111.585z M135.827,111.585
		h-3v-1h3V111.585z M129.827,111.585h-3v-1h3V111.585z M123.827,111.585h-3v-1h3V111.585z M117.827,111.585h-3v-1h3V111.585z
		 M111.827,111.585h-3v-1h3V111.585z M105.827,111.585h-3v-1h3V111.585z M99.827,111.585h-3v-1h3V111.585z M93.827,111.585h-3v-1h3
		V111.585z M87.827,111.585h-3v-1h3V111.585z M81.827,111.585h-3v-1h3V111.585z M75.827,111.585h-3v-1h3V111.585z M69.827,111.585
		h-3v-1h3V111.585z M63.827,111.585h-3v-1h3V111.585z M57.827,111.585h-3v-1h3V111.585z M51.827,111.585h-3v-1h3V111.585z
		 M45.827,111.585h-3v-1h3V111.585z M39.827,111.585h-3v-1h3V111.585z M33.827,111.585h-3v-1h3V111.585z M27.827,111.585h-3v-1h3
		V111.585z"/>
	<path d="M151.235,28.451h-3v-1h3V28.451z M145.235,28.451h-3v-1h3V28.451z M139.235,28.451h-3v-1h3V28.451z M133.235,28.451h-3v-1
		h3V28.451z M127.235,28.451h-3v-1h3V28.451z M121.235,28.451h-3v-1h3V28.451z M115.235,28.451h-3v-1h3V28.451z M109.235,28.451h-3
		v-1h3V28.451z M103.235,28.451h-3v-1h3V28.451z M97.235,28.451h-3v-1h3V28.451z M91.235,28.451h-3v-1h3V28.451z M85.235,28.451h-3
		v-1h3V28.451z M79.235,28.451h-3v-1h3V28.451z M73.235,28.451h-3v-1h3V28.451z M67.235,28.451h-3v-1h3V28.451z M61.235,28.451h-3
		v-1h3V28.451z M55.235,28.451h-3v-1h3V28.451z M49.235,28.451h-3v-1h3V28.451z M43.235,28.451h-3v-1h3V28.451z M37.235,28.451h-3
		v-1h3V28.451z M31.235,28.451h-3v-1h3V28.451z M25.235,28.451h-3v-1h3V28.451z"/>
	<path d="M151.235,73.48h-3v-1h3V73.48z M145.235,73.48h-3v-1h3V73.48z M139.235,73.48h-3v-1h3V73.48z M133.235,73.48h-3v-1h3V73.48
		z M127.235,73.48h-3v-1h3V73.48z M121.235,73.48h-3v-1h3V73.48z M115.235,73.48h-3v-1h3V73.48z M109.235,73.48h-3v-1h3V73.48z
		 M103.235,73.48h-3v-1h3V73.48z M97.235,73.48h-3v-1h3V73.48z M91.235,73.48h-3v-1h3V73.48z M85.235,73.48h-3v-1h3V73.48z
		 M79.235,73.48h-3v-1h3V73.48z M73.235,73.48h-3v-1h3V73.48z M67.235,73.48h-3v-1h3V73.48z M61.235,73.48h-3v-1h3V73.48z
		 M55.235,73.48h-3v-1h3V73.48z M49.235,73.48h-3v-1h3V73.48z M43.235,73.48h-3v-1h3V73.48z M37.235,73.48h-3v-1h3V73.48z
		 M31.235,73.48h-3v-1h3V73.48z M25.235,73.48h-3v-1h3V73.48z"/>
	<path d="M56.385,128.77h-1v-1.844h1V128.77z M56.385,123.926h-1v-3h1V123.926z M56.385,117.926h-1v-3h1V117.926z M56.385,111.926
		h-1v-3h1V111.926z M56.385,105.926h-1v-3h1V105.926z M56.385,99.926h-1v-3h1V99.926z M56.385,93.926h-1v-3h1V93.926z
		 M56.385,87.926h-1v-3h1V87.926z M56.385,81.926h-1v-3h1V81.926z M56.385,75.926h-1v-3h1V75.926z M56.385,69.926h-1v-3h1V69.926z
		 M56.385,63.926h-1v-3h1V63.926z M56.385,57.926h-1v-3h1V57.926z M56.385,51.926h-1v-3h1V51.926z M56.385,45.926h-1v-3h1V45.926z
		 M56.385,39.926h-1v-3h1V39.926z M56.385,33.926h-1v-3h1V33.926z M56.385,27.926h-1v-3h1V27.926z M56.385,21.926h-1v-3h1V21.926z
		 M56.385,15.926h-1v-3h1V15.926z M56.385,9.926h-1v-3h1V9.926z"/>
	<path d="M123.024,130.363h-1v-1.844h1V130.363z M123.024,125.52h-1v-3h1V125.52z M123.024,119.52h-1v-3h1V119.52z M123.024,113.52
		h-1v-3h1V113.52z M123.024,107.52h-1v-3h1V107.52z M123.024,101.52h-1v-3h1V101.52z M123.024,95.52h-1v-3h1V95.52z M123.024,89.52
		h-1v-3h1V89.52z M123.024,83.52h-1v-3h1V83.52z M123.024,77.52h-1v-3h1V77.52z M123.024,71.52h-1v-3h1V71.52z M123.024,65.52h-1v-3
		h1V65.52z M123.024,59.52h-1v-3h1V59.52z M123.024,53.52h-1v-3h1V53.52z M123.024,47.52h-1v-3h1V47.52z M123.024,41.52h-1v-3h1
		V41.52z M123.024,35.52h-1v-3h1V35.52z M123.024,29.52h-1v-3h1V29.52z M123.024,23.52h-1v-3h1V23.52z M123.024,17.52h-1v-3h1V17.52
		z M123.024,11.52h-1v-3h1V11.52z"/>
	<g>
		<path d="M87.999,112.089c-2.568,0-8.573-0.614-10.619-6.139c-2.285-6.171-12.673-25.744-12.777-25.941
			c-0.035-0.066-0.063-0.137-0.083-0.209c-0.296-1.1-1.678-6.697,0.213-8.858c0.7-0.855,1.823-7.241,2.567-11.466
			c1.298-7.379,1.724-9.314,2.466-9.907c0.082-0.068,0.314-0.348,0.519-0.595c2.021-2.432,7.411-8.88,21.634-8.264
			c0.552,0.024,0.979,0.491,0.955,1.043s-0.505,0.98-1.043,0.955c-13.259-0.583-18.161,5.32-20.007,7.544
			c-0.301,0.362-0.513,0.617-0.719,0.802c-0.436,0.816-1.211,5.218-1.835,8.769c-1.229,6.988-2.048,11.313-3.031,12.437
			c-0.861,0.984-0.405,4.662,0.185,6.913c0.904,1.705,10.563,19.954,12.832,26.084c2.043,5.515,9.636,4.802,9.716,4.794
			c0.538-0.067,1.04,0.344,1.097,0.893c0.056,0.55-0.344,1.041-0.894,1.097C89.098,112.048,88.662,112.089,87.999,112.089z"/>
		<path fill="#D00E1F" d="M90.215,112.086c-0.695,0-1.15-0.038-1.232-0.045c-0.55-0.05-0.955-0.535-0.905-1.085
			c0.049-0.55,0.535-0.948,1.084-0.907c0.087,0.009,8.595,0.69,10.633-4.814c2.271-6.129,12.746-24.287,13.783-26.08
			c0.586-2.255,1.036-5.917,0.18-6.896c-0.983-1.124-1.801-5.447-3.03-12.435c-0.625-3.551-1.4-7.955-1.837-8.771
			c-0.205-0.184-0.416-0.438-0.717-0.8c-1.845-2.224-6.739-8.123-20.009-7.545c-0.537,0.023-1.019-0.403-1.043-0.955
			s0.403-1.019,0.955-1.043c14.243-0.625,19.616,5.833,21.636,8.266c0.204,0.245,0.436,0.524,0.52,0.594
			c0.74,0.592,1.166,2.528,2.465,9.908c0.743,4.225,1.867,10.609,2.567,11.466c1.889,2.159,0.508,7.756,0.212,8.856
			c-0.022,0.084-0.057,0.166-0.101,0.241c-0.114,0.197-11.426,19.735-13.706,25.889C99.613,111.482,92.994,112.086,90.215,112.086z"
			/>
		<path d="M85.049,82.256c-0.355,0.001-0.659-0.137-0.848-0.293c-0.425-0.353-0.482-0.983-0.129-1.408
			c0.203-0.245,0.488-0.372,0.799-0.36c0.242-0.379,0.829-1.667,1.313-5.66c0.832-6.866-1.871-8.839-1.898-8.857
			c-0.447-0.313-0.57-0.93-0.267-1.383s0.904-0.584,1.363-0.29c0.154,0.1,3.785,2.535,2.788,10.771
			c-0.713,5.878-1.71,7.028-2.591,7.379C85.396,82.226,85.216,82.256,85.049,82.256z"/>
		<path d="M87.909,88.267c-0.641,0-1.331-0.088-2.077-0.29c-2.54-0.687-3.551-1.781-4.527-2.84
			c-0.348-0.377-0.676-0.732-1.083-1.082c-0.699-0.6-0.993-1.396-0.828-2.246c0.303-1.551,2.067-2.8,2.562-2.965
			c0.521-0.174,1.09,0.106,1.266,0.63c0.168,0.502-0.084,1.044-0.567,1.242c-0.327,0.183-1.243,0.986-1.303,1.513
			c-0.006,0.059-0.016,0.146,0.172,0.308c0.497,0.426,0.881,0.842,1.252,1.244c0.892,0.966,1.596,1.729,3.579,2.266
			c2.859,0.772,4.463-0.603,6.012-1.935c0.727-0.625,1.412-1.215,2.186-1.487c1.72-0.606,2.546-0.442,3.123-0.197
			c0.462,0.104,0.798,0.527,0.777,1.017c-0.023,0.553-0.497,0.983-1.041,0.958c-0.229-0.01-0.4-0.083-0.514-0.132
			c-0.111-0.048-0.448-0.194-1.68,0.24c-0.42,0.148-0.968,0.619-1.548,1.118C92.397,86.721,90.6,88.266,87.909,88.267z"/>
		<path fill="#D00E1F" d="M93.482,97.723h-8.642c-0.553,0-1-0.448-1-1c0-0.553,0.447-1,1-1h8.642c0.553,0,1,0.447,1,1
			C94.482,97.274,94.035,97.723,93.482,97.723z"/>
		<path d="M95.401,103.796c-0.096,0-0.192-0.014-0.289-0.043c-0.528-0.159-0.828-0.718-0.668-1.246l3.102-10.276
			c0.159-0.528,0.719-0.825,1.246-0.669c0.528,0.16,0.828,0.718,0.668,1.247l-3.102,10.276
			C96.229,103.517,95.831,103.796,95.401,103.796z"/>
		<path d="M83.323,103.796c-0.435,0-0.834-0.284-0.961-0.723l-2.975-10.276c-0.153-0.53,0.152-1.085,0.683-1.238
			c0.534-0.152,1.086,0.152,1.239,0.683l2.975,10.276c0.153,0.53-0.152,1.085-0.683,1.238
			C83.509,103.783,83.415,103.796,83.323,103.796z"/>
		<path fill="#D00E1F" d="M83.114,69.366c-0.99,0-1.602-0.668-2.103-1.217c-0.613-0.67-1.308-1.43-2.952-1.869
			c-2.591-0.694-4.817,1.213-5.551,1.839c-0.144,0.122-0.248,0.206-0.305,0.243c-0.459,0.308-1.08,0.186-1.388-0.273
			c-0.303-0.452-0.188-1.062,0.254-1.374l0.14-0.117c2.499-2.132,4.974-2.891,7.366-2.249c2.209,0.59,3.233,1.71,3.911,2.451
			c0.491,0.537,0.564,0.571,0.685,0.562c0.544-0.086,1.057,0.291,1.14,0.837c0.084,0.546-0.291,1.056-0.837,1.14
			C83.35,69.357,83.229,69.366,83.114,69.366z"/>
		<path fill="#D00E1F" d="M94.997,69.366c-0.115,0-0.234-0.009-0.36-0.028c-0.546-0.084-0.921-0.594-0.837-1.14
			c0.083-0.546,0.578-0.922,1.14-0.837c0.126,0.015,0.193-0.024,0.686-0.562c0.678-0.741,1.701-1.861,3.911-2.452
			c2.389-0.639,4.866,0.117,7.365,2.25l0.143,0.12c0.428,0.329,0.532,0.948,0.218,1.387s-0.904,0.56-1.354,0.258
			c-0.057-0.037-0.161-0.121-0.305-0.243c-0.733-0.627-2.967-2.529-5.55-1.839c-1.646,0.439-2.34,1.199-2.952,1.869
			C96.6,68.697,95.987,69.366,94.997,69.366z"/>
		<circle fill-rule="evenodd" clip-rule="evenodd" cx="76.96" cy="68.992" r="1.576"/>
		<circle fill-rule="evenodd" clip-rule="evenodd" cx="101.212" cy="68.992" r="1.576"/>
		<path d="M117.299,84.902c-0.529,0-1.028-0.276-1.396-0.79c-0.684-0.96-0.855-1.916-0.969-2.549
			c-0.027-0.152-0.044-0.282-0.076-0.376c0.022,0.066,0.139,0.262,0.393,0.365c0.249,0.102,0.46,0.049,0.521,0.019l-1.051-1.702
			c0.473-0.285,0.919-0.336,1.329-0.149c0.638,0.29,0.752,0.928,0.853,1.491c0.079,0.437,0.174,0.966,0.464,1.481
			c0.568-0.813,1.503-3.44,1.503-7.57c0-1.8-0.053-3.611-0.103-5.363c-0.123-4.249-0.239-8.264,0.35-11.958
			c0.264-1.654,0.788-3.221,1.285-4.506c-2.355,2.979-5.129,8.614-6.158,10.909l-1.824-0.818c0.189-0.424,4.693-10.414,8.117-13.104
			c0.813-0.637,1.737-1.362,2.541-0.749c0.79,0.6,0.428,1.472-0.231,3.056c-0.564,1.355-1.416,3.403-1.755,5.527
			c-0.559,3.51-0.445,7.433-0.325,11.586c0.051,1.767,0.104,3.593,0.104,5.421c0,4.331-1.059,9.054-3.081,9.701
			C117.625,84.876,117.46,84.902,117.299,84.902z"/>
		<path d="M61.882,84.548c-0.161,0-0.325-0.026-0.489-0.078c-2.024-0.647-3.083-5.371-3.083-9.702c0-1.829,0.053-3.656,0.104-5.423
			c0.12-4.152,0.233-8.075-0.324-11.584c-0.339-2.125-1.191-4.174-1.755-5.529c-0.659-1.582-1.021-2.454-0.232-3.054
			c0.808-0.614,1.728,0.11,2.541,0.749c3.424,2.69,7.929,12.682,8.118,13.105l-1.824,0.818c-1.029-2.295-3.802-7.927-6.156-10.906
			c0.496,1.284,1.021,2.849,1.283,4.502c0.588,3.693,0.472,7.707,0.35,11.956c-0.051,1.753-0.104,3.565-0.104,5.365
			c0,4.122,0.932,6.747,1.5,7.565c0.297-0.527,0.391-1.047,0.468-1.478c0.101-0.563,0.215-1.2,0.853-1.489
			c0.409-0.186,0.855-0.135,1.33,0.149l-1.031,1.714c0.04,0.018,0.253,0.071,0.501-0.03c0.253-0.104,0.369-0.299,0.393-0.365
			c-0.032,0.094-0.05,0.223-0.077,0.375c-0.113,0.633-0.285,1.589-0.969,2.549C62.91,84.271,62.411,84.548,61.882,84.548z"/>
		<g>
			<path fill-rule="evenodd" clip-rule="evenodd" fill="#FFFFFF" d="M88.95,27.949c0,0-26.51,5.975-26.988,19.149
				s1.205,15.179,1.205,15.179L61.97,74.89l2.573,12.379l6.716-10.893l-2.842-11.53c0,0,6.973-5.371,7.619-5.604
				c0.646-0.233,9.52,8.174,9.52,8.174l3.395,1.576"/>
			<path d="M64.075,89.933L60.96,74.945l1.183-12.453c-0.545-1.135-1.568-4.729-1.18-15.43c0.5-13.786,26.654-19.838,27.768-20.089
				l0.439,1.951c-0.257,0.058-25.764,5.956-26.209,18.21c-0.439,12.12,0.956,14.463,1.016,14.558l0.27,0.32l-0.084,0.359
				l-1.183,12.462l2.031,9.771l5.177-8.396L67.29,64.451l0.517-0.397c3.237-2.494,7.234-5.517,7.892-5.753
				c0.651-0.236,1.224-0.436,10.427,8.276l3.246,1.508l-0.842,1.814l-3.543-1.646l-0.118-0.112c-3.503-3.318-7.511-6.917-8.777-7.78
				c-0.962,0.647-3.835,2.797-6.547,4.879l2.786,11.304L64.075,89.933z"/>
		</g>
		<g>
			<path fill-rule="evenodd" clip-rule="evenodd" fill="#FFFFFF" d="M89.257,52.449V27.951c0,0,26.51,5.975,26.988,19.149
				c0.479,13.174-1.205,15.181-1.205,15.181l1.197,12.609l-2.574,12.382l-6.715-10.896l2.842-11.529c0,0-6.973-5.372-7.619-5.605
				c-0.646-0.232-9.521,8.176-9.521,8.176l-3.394,1.556"/>
			<path d="M114.131,89.937l-8.254-13.392l2.786-11.303c-2.687-2.063-5.531-4.191-6.554-4.876c-1.275,0.872-5.274,4.465-8.771,7.777
				l-0.12,0.114l-3.544,1.625l-0.834-1.818l3.243-1.486c9.202-8.713,9.775-8.512,10.426-8.277c0.657,0.237,4.654,3.26,7.892,5.755
				l0.517,0.397l-2.897,11.756l5.176,8.398l2.032-9.772l-1.223-12.876l0.27-0.32c0.015-0.036,1.411-2.382,0.972-14.502
				c-0.389-10.695-19.869-16.549-24.989-17.903v23.216h-2V26.7l1.22,0.275c1.113,0.251,27.268,6.303,27.768,20.089
				c0.389,10.703-0.635,14.297-1.18,15.432l1.183,12.45L114.131,89.937z"/>
		</g>
		<g>
			<path fill-rule="evenodd" clip-rule="evenodd" fill="#FFFFFF" d="M83.323,32.787c0.584-1.166,5.936-13.012,5.936-13.012
				l6.143,13.012c0,0-6.65,1.852-10.561,0"/>
			<path d="M89.336,34.608c-1.698,0-3.466-0.228-4.923-0.918l0.855-1.808c2.609,1.235,6.708,0.623,8.7,0.212l-4.69-9.936
				c-1.554,3.432-4.617,10.188-5.061,11.075l-1.789-0.896c0.569-1.135,5.865-12.857,5.919-12.976l0.892-1.973l7.572,16.042
				L95.67,33.75C95.482,33.803,92.531,34.608,89.336,34.608z"/>
		</g>
		<g>
			<path fill-rule="evenodd" clip-rule="evenodd" fill="#FFFFFF" d="M82.862,50.393c0.582-1.401,5.934-15.646,5.934-15.646
				l6.143,15.646c0,0-6.649,2.228-10.56,0"/>
			<path d="M88.871,52.381c-1.72,0-3.509-0.277-4.987-1.12l0.99-1.737c2.631,1.499,6.817,0.699,8.731,0.21l-4.789-12.199
				c-1.561,4.145-4.592,12.186-5.03,13.242l-1.848-0.768c0.569-1.37,5.868-15.472,5.921-15.613l0.916-2.438l7.479,19.048
				l-0.998,0.335C95.067,51.403,92.095,52.381,88.871,52.381z"/>
		</g>
		<path fill="#D00E1F" d="M72.772,114.924c-0.244,0-0.488-0.089-0.681-0.268c-0.404-0.376-0.428-1.009-0.052-1.414l0.816-0.878
			l-2.203-20.59c-0.059-0.55,0.339-1.042,0.888-1.101c0.557-0.057,1.043,0.339,1.101,0.888l2.252,21.044
			c0.031,0.288-0.064,0.575-0.262,0.787l-1.127,1.212C73.308,114.816,73.04,114.924,72.772,114.924z"/>
		<path fill="#D00E1F" d="M106.465,114.924c-0.268,0-0.535-0.107-0.732-0.319l-1.126-1.212c-0.197-0.212-0.293-0.499-0.262-0.787
			l2.252-21.044c0.058-0.55,0.546-0.95,1.101-0.888c0.549,0.059,0.946,0.551,0.888,1.101l-2.203,20.591l0.815,0.878
			c0.376,0.404,0.353,1.037-0.052,1.413C106.953,114.835,106.709,114.924,106.465,114.924z"/>
		<path d="M96.044,63.418l0.93-1.873c0.021-0.755-1.033-5.693-2.059-10.048l-0.129-0.544l9.947-1.2l2.416,11.625l-5.399-2.345
			L96.044,63.418z M96.016,51.813c1.229,5.25,1.702,7.732,1.864,8.933l3.728-2.864l4.171,1.811l-1.838-8.836L96.016,51.813z"/>
		<path d="M95.004,50.822l-2.321-10.447l12.344,10.02L95.004,50.822z M94.282,42.961l1.517,6.826l6.548-0.279L94.282,42.961z"/>
		<path d="M106.694,58.64l-0.461-0.887l1.025-0.535l5.419-7.229l-4.66-4.893l-3.934,5.157l-0.817-0.574l3.661-5.673l-5.821-4.743
			c-2.438,0.781-5.909,1.897-6.127,1.98l-0.178-0.464l-0.508,0.08c-0.069-0.443-0.069-0.443,6.766-2.632l0.258-0.082l6.937,5.65
			l-0.038,0.059l5.771,6.057l-6.165,8.141L106.694,58.64z"/>
		<polygon points="111.225,64.398 110.332,63.948 112.767,59.117 110.342,54.761 111.215,54.274 113.897,59.094 		"/>
		<path d="M93.31,40.99l-3.117-4.065v-2.596l6.931-1.26l4.709,4.799L93.31,40.99z M91.192,36.586l2.463,3.213l6.378-2.337
			l-3.252-3.313l-5.589,1.016V36.586z"/>
		<path fill="none" stroke="#000000" stroke-miterlimit="10" d="M136.953,40.395"/>
		<path d="M104.078,40.185l-0.783-0.621c0.981-1.24,2.039-2.638,2.492-3.317c-0.597-0.264-1.755-0.831-4.071-2.052l-2.544,1.79
			l-0.576-0.817l3.046-2.144l0.271,0.144c2.025,1.07,4.313,2.23,4.635,2.317h0.314l0.071,0.283
			C107.085,36.082,107.176,36.271,104.078,40.185z"/>
		<rect x="109.137" y="38.947" transform="matrix(0.8885 0.4589 -0.4589 0.8885 31.2389 -45.6912)" width="1" height="4.973"/>
		<rect x="114.272" y="45.986" transform="matrix(0.6918 0.7221 -0.7221 0.6918 70.019 -68.0881)" width="0.999" height="3.988"/>
		<path fill="none" stroke="#000000" stroke-miterlimit="10" d="M113.332,59.105"/>
		<rect x="113.552" y="56.684" transform="matrix(0.6306 0.7761 -0.7761 0.6306 86.8388 -67.2342)" width="1" height="1.855"/>
		<path fill="#262324" d="M141.562,70.69c-1.419,0-2.817-0.25-4.133-0.769c-3.145-1.239-5.113-3.479-5.4-6.146
			c-0.297-2.761,1.296-5.522,4.37-7.579c0.695-0.466,1.15-0.793,1.438-1.009c0.421-0.417,0.875-0.72,1.274-0.678l0.7,0.07
			l0.172,0.684c0.125,0.498,0.08,0.759-0.879,1.484c-0.448,0.474-1.068,1.301-1.147,2.216c-0.062,0.715,0.225,1.381,0.875,2.037
			c1.301,1.313,3.176,2.721,4.686,1.979c1.961-0.962,2.989-5.108,2.393-9.647c-0.663-5.039-3.414-10.826-9.15-11.957
			c-8.308-1.637-14.104,1.479-16.82,3.481c-2.587,1.907-3.749,3.778-3.797,4.237c0.006-0.058-0.018-0.262-0.2-0.442l-1.41,1.417
			c-0.368-0.366-0.661-1.078,0.037-2.389c1.918-3.605,10.263-10.695,22.577-8.267c6.775,1.335,9.993,7.931,10.746,13.659
			c0.727,5.525-0.71,10.338-3.494,11.702c-1.423,0.7-3.793,0.856-6.986-2.365c-0.979-0.988-1.473-2.117-1.463-3.295
			c-1.403,1.375-2.095,2.935-1.933,4.447c0.205,1.902,1.716,3.542,4.146,4.5c4.008,1.577,8.989,0.137,12.401-3.588
			c2.652-2.896,7.963-11.35,0.01-27.285c-2.669-5.347-6.822-8.988-12.344-10.823c-15.8-5.251-37.921,5.722-38.143,5.833
			l-0.899-1.786c0.935-0.471,23.074-11.459,39.668-5.946c6.047,2.009,10.592,5.988,13.507,11.829
			c8.508,17.046,2.607,26.329-0.324,29.529C149.164,68.962,145.291,70.69,141.562,70.69z"/>
		<path fill="#D00E1F" d="M35.382,69.948c-3.729,0-7.602-1.729-10.476-4.866c-2.933-3.2-8.834-12.484-0.325-29.531
			c2.915-5.841,7.46-9.82,13.507-11.829c16.594-5.513,38.733,5.477,39.668,5.946l-0.899,1.786
			c-0.222-0.111-22.341-11.084-38.143-5.833c-5.521,1.835-9.675,5.477-12.344,10.823c-7.954,15.937-2.643,24.392,0.011,27.287
			c3.412,3.723,8.394,5.165,12.399,3.587c2.432-0.958,3.942-2.599,4.147-4.502c0.162-1.512-0.529-3.071-1.934-4.446
			c0.01,1.178-0.483,2.307-1.463,3.295c-3.194,3.223-5.562,3.064-6.986,2.366c-2.783-1.364-4.22-6.177-3.494-11.702
			c0.753-5.729,3.972-12.325,10.747-13.66c12.307-2.428,20.658,4.661,22.576,8.267c0.698,1.311,0.405,2.022,0.037,2.389l-1.41-1.417
			c-0.183,0.181-0.206,0.385-0.2,0.442c-0.048-0.459-1.209-2.33-3.797-4.238c-2.715-2.002-8.511-5.117-16.819-3.48
			c-5.736,1.131-8.488,6.919-9.15,11.959c-0.597,4.538,0.432,8.685,2.392,9.646c1.511,0.743,3.384-0.666,4.686-1.979
			c0.65-0.656,0.937-1.323,0.875-2.038c-0.079-0.921-0.707-1.752-1.155-2.224c-0.942-0.718-0.993-0.987-0.871-1.476l0.171-0.683
			l0.701-0.071c0.408-0.044,0.855,0.261,1.276,0.679c0.288,0.217,0.743,0.543,1.437,1.008c3.074,2.056,4.668,4.818,4.371,7.578
			c-0.287,2.668-2.256,4.908-5.401,6.148C38.199,69.697,36.801,69.948,35.382,69.948z"/>
		<path fill="#D00E1F" d="M142.855,110.533c-2.838-4.588-5.425-4.348-13.094-3.632c-2.066,0.191-4.407,0.41-7.179,0.567
			c-7.089,0.401-11.539-0.281-13.239-2.033c-0.719-0.74-0.72-1.435-0.702-1.629l1.992,0.174c0.009-0.102-0.003-0.145-0.003-0.146
			c0.005,0.023,0.956,2.257,11.839,1.638c2.735-0.155,5.058-0.371,7.106-0.563c7.648-0.711,11.489-1.07,14.98,4.571L142.855,110.533
			z"/>
		<path fill="#D00E1F" d="M36.068,110.533l-1.701-1.053c3.491-5.642,7.332-5.284,14.98-4.571c2.049,0.191,4.371,0.407,7.106,0.563
			c10.891,0.62,11.833-1.615,11.839-1.638c0,0.002-0.012,0.045-0.003,0.146l1.992-0.174c0.018,0.194,0.017,0.888-0.702,1.629
			c-1.699,1.753-6.156,2.437-13.239,2.033c-2.771-0.157-5.112-0.376-7.179-0.567C41.494,106.186,38.907,105.946,36.068,110.533z"/>
	</g>
</g>
</svg>
