<?xml version="1.0" encoding="utf-8"?>
<!-- Generator: Adobe Illustrator 16.0.0, SVG Export Plug-In . SVG Version: 6.00 Build 0)  -->
<!DOCTYPE svg PUBLIC "-//W3C//DTD SVG 1.1//EN" "http://www.w3.org/Graphics/SVG/1.1/DTD/svg11.dtd">
<svg version="1.1" id="Capa_1" xmlns="http://www.w3.org/2000/svg" xmlns:xlink="http://www.w3.org/1999/xlink" x="0px" y="0px"
	 width="177.292px" height="132px" viewBox="0 0 177.292 132" enable-background="new 0 0 177.292 132" xml:space="preserve">
<g>
	<g>
		<rect x="42.022" y="20.165" width="1.5" height="1"/>
		<path d="M39.449,21.165h-2.573v-1h2.573V21.165z M34.303,21.165H31.73v-1h2.572V21.165z"/>
		<polygon points="28.157,22.165 27.157,22.165 27.157,20.165 29.157,20.165 29.157,21.165 28.157,21.165 		"/>
		<path d="M28.157,105.697h-1v-2.983h1V105.697z M28.157,99.73h-1v-2.983h1V99.73z M28.157,93.764h-1v-2.983h1V93.764z
			 M28.157,87.797h-1v-2.983h1V87.797z M28.157,81.831h-1v-2.983h1V81.831z M28.157,75.864h-1v-2.983h1V75.864z M28.157,69.897h-1
			v-2.983h1V69.897z M28.157,63.931h-1v-2.983h1V63.931z M28.157,57.964h-1v-2.983h1V57.964z M28.157,51.998h-1v-2.983h1V51.998z
			 M28.157,46.031h-1v-2.983h1V46.031z M28.157,40.065h-1v-2.983h1V40.065z M28.157,34.098h-1v-2.983h1V34.098z M28.157,28.132h-1
			v-2.983h1V28.132z"/>
		<polygon points="29.157,110.68 27.157,110.68 27.157,108.68 28.157,108.68 28.157,109.68 29.157,109.68 		"/>
		<path d="M39.449,110.68h-2.572v-1h2.572V110.68z M34.304,110.68H31.73v-1h2.573V110.68z"/>
		<rect x="42.022" y="109.68" width="1.5" height="1"/>
	</g>
	<g>
		<rect x="132.491" y="109.68" width="1.5" height="1"/>
		<path d="M144.283,110.68h-2.572v-1h2.572V110.68z M139.138,110.68h-2.573v-1h2.573V110.68z"/>
		<polygon points="148.856,110.68 146.856,110.68 146.856,109.68 147.856,109.68 147.856,108.68 148.856,108.68 		"/>
		<path d="M148.856,105.697h-1v-2.983h1V105.697z M148.856,99.73h-1v-2.983h1V99.73z M148.856,93.764h-1V90.78h1V93.764z
			 M148.856,87.797h-1v-2.983h1V87.797z M148.856,81.831h-1v-2.983h1V81.831z M148.856,75.864h-1v-2.983h1V75.864z M148.856,69.897
			h-1v-2.983h1V69.897z M148.856,63.931h-1v-2.983h1V63.931z M148.856,57.964h-1v-2.983h1V57.964z M148.856,51.998h-1v-2.983h1
			V51.998z M148.856,46.031h-1v-2.983h1V46.031z M148.856,40.064h-1v-2.983h1V40.064z M148.856,34.098h-1v-2.983h1V34.098z
			 M148.856,28.131h-1v-2.983h1V28.131z"/>
		<polygon points="148.856,22.165 147.856,22.165 147.856,21.165 146.856,21.165 146.856,20.165 148.856,20.165 		"/>
		<path d="M144.283,21.165h-2.573v-1h2.573V21.165z M139.137,21.165h-2.572v-1h2.572V21.165z"/>
		<rect x="132.491" y="20.165" width="1.5" height="1"/>
	</g>
	<path d="M158.644,102.782h-1.996v-1h1.996V102.782z M153.647,102.782h-3v-1h3V102.782z M147.647,102.782h-3v-1h3V102.782z
		 M141.647,102.782h-3v-1h3V102.782z M135.647,102.782h-3v-1h3V102.782z M129.647,102.782h-3v-1h3V102.782z M123.647,102.782h-3v-1
		h3V102.782z M117.647,102.782h-3v-1h3V102.782z M111.647,102.782h-3v-1h3V102.782z M105.647,102.782h-3v-1h3V102.782z
		 M99.647,102.782h-3v-1h3V102.782z M93.647,102.782h-3v-1h3V102.782z M87.647,102.782h-3v-1h3V102.782z M81.647,102.782h-3v-1h3
		V102.782z M75.647,102.782h-3v-1h3V102.782z M69.647,102.782h-3v-1h3V102.782z M63.647,102.782h-3v-1h3V102.782z M57.647,102.782
		h-3v-1h3V102.782z M51.647,102.782h-3v-1h3V102.782z M45.647,102.782h-3v-1h3V102.782z M39.647,102.782h-3v-1h3V102.782z
		 M33.647,102.782h-3v-1h3V102.782z M27.647,102.782h-3v-1h3V102.782z M21.647,102.782h-3v-1h3V102.782z"/>
	<path d="M158.644,28.925h-1.996v-1h1.996V28.925z M153.647,28.925h-3v-1h3V28.925z M147.647,28.925h-3v-1h3V28.925z
		 M141.647,28.925h-3v-1h3V28.925z M135.647,28.925h-3v-1h3V28.925z M129.647,28.925h-3v-1h3V28.925z M123.647,28.925h-3v-1h3
		V28.925z M117.647,28.925h-3v-1h3V28.925z M111.647,28.925h-3v-1h3V28.925z M105.647,28.925h-3v-1h3V28.925z M99.647,28.925h-3v-1
		h3V28.925z M93.647,28.925h-3v-1h3V28.925z M87.647,28.925h-3v-1h3V28.925z M81.647,28.925h-3v-1h3V28.925z M75.647,28.925h-3v-1h3
		V28.925z M69.647,28.925h-3v-1h3V28.925z M63.647,28.925h-3v-1h3V28.925z M57.647,28.925h-3v-1h3V28.925z M51.647,28.925h-3v-1h3
		V28.925z M45.647,28.925h-3v-1h3V28.925z M39.647,28.925h-3v-1h3V28.925z M33.647,28.925h-3v-1h3V28.925z M27.647,28.925h-3v-1h3
		V28.925z M21.647,28.925h-3v-1h3V28.925z"/>
	<path d="M38.695,126.742h-1v-3h1V126.742z M38.695,120.742h-1v-3h1V120.742z M38.695,114.742h-1v-3h1V114.742z M38.695,108.742h-1
		v-3h1V108.742z M38.695,102.742h-1v-3h1V102.742z M38.695,96.742h-1v-3h1V96.742z M38.695,90.742h-1v-3h1V90.742z M38.695,84.742
		h-1v-3h1V84.742z M38.695,78.742h-1v-3h1V78.742z M38.695,72.742h-1v-3h1V72.742z M38.695,66.742h-1v-3h1V66.742z M38.695,60.742
		h-1v-3h1V60.742z M38.695,54.742h-1v-3h1V54.742z M38.695,48.742h-1v-3h1V48.742z M38.695,42.742h-1v-3h1V42.742z M38.695,36.742
		h-1v-3h1V36.742z M38.695,30.742h-1v-3h1V30.742z M38.695,24.742h-1v-3h1V24.742z M38.695,18.742h-1v-3h1V18.742z M38.695,12.742
		h-1v-3h1V12.742z M38.695,6.742h-1v-3h1V6.742z"/>
	<path d="M137.517,126.742h-1v-3h1V126.742z M137.517,120.742h-1v-3h1V120.742z M137.517,114.742h-1v-3h1V114.742z M137.517,108.742
		h-1v-3h1V108.742z M137.517,102.742h-1v-3h1V102.742z M137.517,96.742h-1v-3h1V96.742z M137.517,90.742h-1v-3h1V90.742z
		 M137.517,84.742h-1v-3h1V84.742z M137.517,78.742h-1v-3h1V78.742z M137.517,72.742h-1v-3h1V72.742z M137.517,66.742h-1v-3h1
		V66.742z M137.517,60.742h-1v-3h1V60.742z M137.517,54.742h-1v-3h1V54.742z M137.517,48.742h-1v-3h1V48.742z M137.517,42.742h-1v-3
		h1V42.742z M137.517,36.742h-1v-3h1V36.742z M137.517,30.742h-1v-3h1V30.742z M137.517,24.742h-1v-3h1V24.742z M137.517,18.742h-1
		v-3h1V18.742z M137.517,12.742h-1v-3h1V12.742z M137.517,6.742h-1v-3h1V6.742z"/>
	<rect x="42.482" y="33.251" fill="#D00E1F" width="92.329" height="6.93"/>
	<rect x="42.482" y="46.241" fill="#C41C48" width="27.835" height="23.047"/>
	<rect x="74.729" y="46.241" fill="#262324" width="27.835" height="23.047"/>
	<rect x="106.976" y="46.241" fill="#C41C48" width="27.836" height="23.047"/>
	<rect x="42.813" y="75.26" fill="#D00E1F" width="91.664" height="23.048"/>
</g>
</svg>
