<?xml version="1.0" encoding="utf-8"?>
<!-- Generator: Adobe Illustrator 21.0.0, SVG Export Plug-In . SVG Version: 6.00 Build 0)  -->
<svg version="1.1" id="Capa_1" xmlns="http://www.w3.org/2000/svg" xmlns:xlink="http://www.w3.org/1999/xlink" x="0px" y="0px"
	 viewBox="0 0 525 584" style="enable-background:new 0 0 525 584;" xml:space="preserve">
<style type="text/css">
	.st0{fill:none;stroke:#342075;stroke-miterlimit:10;}
	.st1{fill:#FFFFFF;stroke:#000000;stroke-width:11;stroke-linecap:round;stroke-linejoin:round;stroke-miterlimit:10;}
	.st2{fill:#FFFFFF;}
	.st3{fill:none;stroke:#000000;stroke-width:4;stroke-miterlimit:10;}
	.st4{fill:none;stroke:#000000;stroke-width:8;stroke-miterlimit:10;}
	.st5{stroke:#000000;stroke-width:2;stroke-miterlimit:10;}
	.st6{fill:none;stroke:#000000;stroke-width:8;stroke-miterlimit:10;stroke-dasharray:12.0186,12.0186;}
	.st7{fill:none;stroke:#000000;stroke-width:197;stroke-miterlimit:10;}
	.st8{fill:#C41C48;}
	.st9{fill:#342075;}
	.st10{fill:#12102D;}
	.st11{fill:none;stroke:#FFFFFF;stroke-miterlimit:10;}
	.st12{fill:none;stroke:#C41C48;stroke-miterlimit:10;}
	.st13{fill:none;stroke:#C41C48;stroke-miterlimit:10;stroke-dasharray:12;}
	.st14{fill:#170E3D;}
</style>
<g>
	<polygon class="st8" points="247,572.3 13.7,120 520,120 477.6,171.3 99.4,171.3 251.1,466.9 345.5,314.9 261.8,314.9 296.8,260.2 
		439,260.2 	"/>
	
		<rect x="75.4" y="457.8" transform="matrix(0.4957 -0.8685 0.8685 0.4957 -307.9099 386.3093)" class="st8" width="206.6" height="1"/>
	
		<rect x="408.6" y="344.2" transform="matrix(0.4957 -0.8685 0.8685 0.4957 -65.8974 575.9448)" class="st8" width="108.8" height="1"/>
	
		<rect x="75.4" y="457.8" transform="matrix(0.4957 -0.8685 0.8685 0.4957 -307.9099 386.3093)" class="st8" width="206.6" height="1"/>
	
		<rect x="-32.5" y="143" transform="matrix(0.5429 -0.8398 0.8398 0.5429 -98.4562 106.1474)" class="st8" width="161.5" height="1"/>
	<path class="st8" d="M272.6,188.1l-0.9-0.5l5.9-10.4l0.9,0.5L272.6,188.1z M284.4,167.2l-0.9-0.5l5.9-10.4l0.9,0.5L284.4,167.2z
		 M296.3,146.4l-0.9-0.5l5.9-10.4l0.9,0.5L296.3,146.4z M308.2,125.5l-0.9-0.5l5.9-10.4l0.9,0.5L308.2,125.5z M320.1,104.7l-0.9-0.5
		l5.9-10.4l0.9,0.5L320.1,104.7z M332,83.8l-0.9-0.5l5.9-10.4l0.9,0.5L332,83.8z M343.9,63l-0.9-0.5l5.9-10.4l0.9,0.5L343.9,63z
		 M355.8,42.1l-0.9-0.5l5.9-10.4l0.9,0.5L355.8,42.1z M367.7,21.3l-0.9-0.5l5.9-10.4l0.9,0.5L367.7,21.3z"/>
</g>
</svg>
