<?xml version="1.0" encoding="utf-8"?>
<!-- Generator: Adobe Illustrator 16.0.0, SVG Export Plug-In . SVG Version: 6.00 Build 0)  -->
<!DOCTYPE svg PUBLIC "-//W3C//DTD SVG 1.1//EN" "http://www.w3.org/Graphics/SVG/1.1/DTD/svg11.dtd">
<svg version="1.1" id="Capa_1" xmlns="http://www.w3.org/2000/svg" xmlns:xlink="http://www.w3.org/1999/xlink" x="0px" y="0px"
	 width="191px" height="347px" viewBox="0 0 191 347" enable-background="new 0 0 191 347" xml:space="preserve">
<g>
	<path fill-rule="evenodd" clip-rule="evenodd" fill="none" stroke="#B91B45" stroke-miterlimit="10" d="M118.004,36.437
		c0,1.984-1.1,3.594-2.457,3.594H76.462c-1.357,0-2.458-1.609-2.458-3.594l0,0c0-1.984,1.101-3.594,2.458-3.594h39.084
		C116.904,32.843,118.004,34.452,118.004,36.437L118.004,36.437z"/>
	<g>
		<g>
			<g>
				<g>
					<path fill-rule="evenodd" clip-rule="evenodd" fill="none" stroke="#B91B45" stroke-miterlimit="10" d="M17.121,172.083
						c0-42.233-0.036-84.465,0.015-126.698c0.025-20.459,8.097-28.656,28.368-28.705c33.637-0.084,67.275-0.123,100.91,0.015
						c20.242,0.084,28.41,8.321,28.428,28.726c0.076,85.215,0.084,170.426-0.006,255.642c-0.022,21.08-8.376,29.396-29.051,29.436
						c-33.263,0.063-66.527,0.079-99.79-0.005c-20.792-0.055-28.851-8.338-28.866-29.465
						C17.099,258.044,17.121,215.066,17.121,172.083z"/>
				</g>
				
					<circle fill-rule="evenodd" clip-rule="evenodd" fill="none" stroke="#B91B45" stroke-miterlimit="10" cx="95.762" cy="311.409" r="12.146"/>
				
					<rect x="28.047" y="51.511" fill-rule="evenodd" clip-rule="evenodd" fill="none" stroke="#B91B45" stroke-miterlimit="10" width="135.736" height="242.305"/>
			</g>
		</g>
		<g>
			<polygon fill="#C41C48" points="94.176,270.096 65.706,214.902 127.49,214.902 122.315,221.162 76.164,221.162 94.675,257.233 
				106.195,238.686 95.981,238.686 100.252,232.01 117.605,232.01 			"/>
			
				<rect x="73.236" y="256.122" transform="matrix(-0.4957 0.8685 -0.8685 -0.4957 350.8862 308.6198)" fill="#C41C48" width="25.211" height="0.122"/>
			
				<rect x="113.893" y="242.261" transform="matrix(-0.4958 0.8685 -0.8685 -0.4958 390.7332 257.7778)" fill="#C41C48" width="13.277" height="0.122"/>
			
				<rect x="73.236" y="256.122" transform="matrix(-0.4957 0.8685 -0.8685 -0.4957 350.8862 308.6198)" fill="#C41C48" width="25.211" height="0.122"/>
			
				<rect x="60.068" y="217.712" transform="matrix(-0.5429 0.8398 -0.8398 -0.5429 290.7687 277.2797)" fill="#C41C48" width="19.708" height="0.122"/>
			<path fill="#C41C48" d="M97.299,223.213l-0.109-0.062l0.719-1.27l0.11,0.062L97.299,223.213z M98.739,220.662l-0.11-0.062
				l0.721-1.27l0.109,0.062L98.739,220.662z M100.191,218.123l-0.109-0.061l0.72-1.27l0.11,0.062L100.191,218.123z M101.644,215.573
				l-0.109-0.062l0.72-1.27l0.109,0.062L101.644,215.573z M103.096,213.035l-0.109-0.061l0.719-1.27l0.11,0.061L103.096,213.035z
				 M104.549,210.484l-0.111-0.061l0.721-1.27l0.109,0.061L104.549,210.484z M106,207.946l-0.109-0.062l0.72-1.269l0.109,0.061
				L106,207.946z M107.453,205.396l-0.11-0.062l0.72-1.27l0.109,0.062L107.453,205.396z M108.904,202.857l-0.109-0.062l0.72-1.268
				l0.11,0.061L108.904,202.857z"/>
		</g>
	</g>
</g>
</svg>
