<?xml version="1.0" encoding="utf-8"?>
<!-- Generator: Adobe Illustrator 16.0.0, SVG Export Plug-In . SVG Version: 6.00 Build 0)  -->
<!DOCTYPE svg PUBLIC "-//W3C//DTD SVG 1.1//EN" "http://www.w3.org/Graphics/SVG/1.1/DTD/svg11.dtd">
<svg version="1.1" id="Capa_1" xmlns="http://www.w3.org/2000/svg" xmlns:xlink="http://www.w3.org/1999/xlink" x="0px" y="0px"
	 width="807.356px" height="424.851px" viewBox="0 0 807.356 424.851" enable-background="new 0 0 807.356 424.851"
	 xml:space="preserve">
<g>
	<rect y="69.928" fill="#FFFFFF" width="224" height="354.923"/>
	<rect x="14.752" y="86.928" fill="#E2E2E2" width="194.496" height="63.923"/>
	<rect x="14.752" y="158.973" fill="#E2E2E2" width="194.496" height="88.416"/>
	<rect x="14.752" y="257.036" fill="#E2E2E2" width="194.496" height="63.923"/>
	<g>
		<path fill="#FFFFFF" d="M95.013,34.752h-5.954V50h-1.647V34.752h-5.953v-1.459h13.554V34.752z"/>
		<path fill="#FFFFFF" d="M103.578,50.118c-1.161,0-2.224-0.239-3.188-0.718c-0.964-0.479-1.792-1.114-2.482-1.906
			s-1.224-1.698-1.6-2.718c-0.376-1.02-0.564-2.063-0.564-3.13c0-1.114,0.2-2.18,0.6-3.2c0.4-1.02,0.953-1.921,1.659-2.706
			c0.706-0.784,1.537-1.408,2.494-1.871c0.957-0.462,1.992-0.694,3.106-0.694c1.161,0,2.224,0.247,3.188,0.741
			c0.965,0.494,1.789,1.141,2.471,1.941c0.682,0.8,1.211,1.706,1.588,2.718c0.377,1.012,0.565,2.043,0.565,3.094
			c0,1.114-0.2,2.181-0.6,3.2c-0.4,1.02-0.949,1.918-1.647,2.694c-0.698,0.777-1.526,1.396-2.482,1.859
			C105.728,49.886,104.692,50.118,103.578,50.118z M97.39,41.646c0,0.91,0.149,1.785,0.447,2.624
			c0.298,0.839,0.721,1.585,1.271,2.236c0.549,0.651,1.2,1.168,1.953,1.553c0.753,0.385,1.592,0.577,2.518,0.577
			c0.941,0,1.796-0.204,2.565-0.612c0.769-0.408,1.419-0.941,1.953-1.6c0.533-0.659,0.945-1.404,1.235-2.235
			c0.29-0.832,0.436-1.679,0.436-2.542c0-0.91-0.153-1.784-0.459-2.624c-0.306-0.839-0.733-1.581-1.283-2.224
			c-0.549-0.643-1.2-1.157-1.953-1.542c-0.753-0.384-1.585-0.577-2.495-0.577c-0.941,0-1.796,0.2-2.565,0.6
			c-0.769,0.4-1.42,0.93-1.953,1.588c-0.534,0.659-0.945,1.404-1.235,2.235C97.535,39.937,97.39,40.784,97.39,41.646z"/>
		<path fill="#FFFFFF" d="M114.59,50V33.293h5.647c1.333,0,2.502,0.22,3.506,0.659c1.003,0.439,1.839,1.036,2.506,1.789
			c0.667,0.753,1.165,1.635,1.494,2.647c0.33,1.012,0.494,2.09,0.494,3.235c0,1.271-0.188,2.42-0.564,3.447
			c-0.376,1.028-0.91,1.906-1.6,2.635c-0.691,0.729-1.53,1.294-2.518,1.694s-2.094,0.6-3.318,0.6H114.59z M126.591,41.623
			c0-1.004-0.141-1.926-0.424-2.765c-0.282-0.839-0.694-1.564-1.235-2.176c-0.541-0.612-1.204-1.086-1.988-1.424
			c-0.785-0.337-1.687-0.506-2.706-0.506h-4.024v13.789h4.024c1.036,0,1.949-0.176,2.741-0.529s1.455-0.839,1.989-1.459
			c0.533-0.62,0.937-1.349,1.211-2.188C126.454,43.525,126.591,42.611,126.591,41.623z"/>
		<path fill="#FFFFFF" d="M138.262,50.118c-1.161,0-2.224-0.239-3.188-0.718c-0.964-0.479-1.792-1.114-2.482-1.906
			s-1.224-1.698-1.6-2.718c-0.376-1.02-0.564-2.063-0.564-3.13c0-1.114,0.2-2.18,0.6-3.2c0.4-1.02,0.953-1.921,1.659-2.706
			c0.706-0.784,1.537-1.408,2.494-1.871c0.957-0.462,1.992-0.694,3.106-0.694c1.161,0,2.224,0.247,3.188,0.741
			c0.965,0.494,1.789,1.141,2.471,1.941c0.682,0.8,1.211,1.706,1.588,2.718c0.377,1.012,0.565,2.043,0.565,3.094
			c0,1.114-0.2,2.181-0.6,3.2c-0.4,1.02-0.949,1.918-1.647,2.694c-0.698,0.777-1.526,1.396-2.482,1.859
			C140.412,49.886,139.376,50.118,138.262,50.118z M132.074,41.646c0,0.91,0.149,1.785,0.447,2.624
			c0.298,0.839,0.721,1.585,1.271,2.236c0.549,0.651,1.2,1.168,1.953,1.553c0.753,0.385,1.592,0.577,2.518,0.577
			c0.941,0,1.796-0.204,2.565-0.612c0.769-0.408,1.419-0.941,1.953-1.6c0.533-0.659,0.945-1.404,1.235-2.235
			c0.29-0.832,0.436-1.679,0.436-2.542c0-0.91-0.153-1.784-0.459-2.624c-0.306-0.839-0.733-1.581-1.283-2.224
			c-0.549-0.643-1.2-1.157-1.953-1.542c-0.753-0.384-1.585-0.577-2.495-0.577c-0.941,0-1.796,0.2-2.565,0.6
			c-0.769,0.4-1.42,0.93-1.953,1.588c-0.534,0.659-0.945,1.404-1.235,2.235C132.219,39.937,132.074,40.784,132.074,41.646z"/>
	</g>
	<path fill="#EABC28" d="M78,99.428c0,1.933-1.567,3.5-3.5,3.5h-47c-1.933,0-3.5-1.567-3.5-3.5l0,0c0-1.933,1.567-3.5,3.5-3.5h47
		C76.433,95.928,78,97.495,78,99.428L78,99.428z"/>
	<path fill="#EABC28" d="M62,173.476c0,1.933-1.102,3.5-2.463,3.5H26.463c-1.36,0-2.463-1.567-2.463-3.5l0,0
		c0-1.933,1.103-3.5,2.463-3.5h33.074C60.898,169.976,62,171.542,62,173.476L62,173.476z"/>
	<path fill="#EABC28" d="M93,271.538c0,1.933-2.001,3.5-4.472,3.5H28.472c-2.47,0-4.472-1.567-4.472-3.5l0,0
		c0-1.933,2.002-3.5,4.472-3.5h60.056C90.999,268.038,93,269.605,93,271.538L93,271.538z"/>
	<path fill="#CCCCCC" d="M187.5,112.668c0,1.802-1.059,3.262-2.365,3.262H26.864c-1.306,0-2.365-1.46-2.365-3.262l0,0
		c0-1.801,1.059-3.262,2.365-3.262h158.271C186.441,109.406,187.5,110.867,187.5,112.668L187.5,112.668z"/>
	<path fill="#CCCCCC" d="M195.499,124.675c0,1.802-1.111,3.262-2.481,3.262H26.98c-1.37,0-2.481-1.46-2.481-3.262l0,0
		c0-1.801,1.111-3.262,2.481-3.262h166.038C194.388,121.414,195.499,122.874,195.499,124.675L195.499,124.675z"/>
	<path fill="#CCCCCC" d="M159.5,136.683c0,1.802-0.877,3.262-1.958,3.262H26.458c-1.082,0-1.958-1.46-1.958-3.262l0,0
		c0-1.801,0.877-3.262,1.958-3.262h131.084C158.623,133.421,159.5,134.881,159.5,136.683L159.5,136.683z"/>
	<path fill="#CCCCCC" d="M187.5,185.714c0,1.802-1.059,3.262-2.365,3.262H26.864c-1.306,0-2.365-1.46-2.365-3.262l0,0
		c0-1.801,1.059-3.262,2.365-3.262h158.271C186.441,182.452,187.5,183.913,187.5,185.714L187.5,185.714z"/>
	<path fill="#CCCCCC" d="M187.5,221.737c0,1.802-1.059,3.262-2.365,3.262H26.864c-1.306,0-2.365-1.46-2.365-3.262l0,0
		c0-1.801,1.059-3.262,2.365-3.262h158.271C186.441,218.476,187.5,219.936,187.5,221.737L187.5,221.737z"/>
	<path fill="#CCCCCC" d="M128.5,233.745c0,1.802-0.676,3.262-1.509,3.262H26.008c-0.833,0-1.509-1.46-1.509-3.262l0,0
		c0-1.801,0.676-3.262,1.509-3.262h100.983C127.824,230.483,128.5,231.943,128.5,233.745L128.5,233.745z"/>
	<path fill="#CCCCCC" d="M195.499,197.721c0,1.802-1.111,3.262-2.481,3.262H26.98c-1.37,0-2.481-1.46-2.481-3.262l0,0
		c0-1.801,1.111-3.262,2.481-3.262h166.038C194.388,194.459,195.499,195.92,195.499,197.721L195.499,197.721z"/>
	<path fill="#CCCCCC" d="M159.5,209.729c0,1.802-0.877,3.262-1.958,3.262H26.458c-1.082,0-1.958-1.46-1.958-3.262l0,0
		c0-1.801,0.877-3.262,1.958-3.262h131.084C158.623,206.467,159.5,207.927,159.5,209.729L159.5,209.729z"/>
	<path fill="#CCCCCC" d="M187.5,297.482c0,1.802-1.059,3.262-2.365,3.262H26.864c-1.306,0-2.365-1.46-2.365-3.262l0,0
		c0-1.801,1.059-3.262,2.365-3.262h158.271C186.441,294.22,187.5,295.681,187.5,297.482L187.5,297.482z"/>
	<path fill="#CCCCCC" d="M128.5,309.489c0,1.802-0.676,3.262-1.509,3.262H26.008c-0.833,0-1.509-1.46-1.509-3.262l0,0
		c0-1.801,0.676-3.262,1.509-3.262h100.983C127.824,306.228,128.5,307.688,128.5,309.489L128.5,309.489z"/>
	<path fill="#CCCCCC" d="M159.5,285.473c0,1.802-0.877,3.262-1.958,3.262H26.458c-1.082,0-1.958-1.46-1.958-3.262l0,0
		c0-1.801,0.877-3.262,1.958-3.262h131.084C158.623,282.211,159.5,283.672,159.5,285.473L159.5,285.473z"/>
	<rect x="291.185" y="69.928" fill="#FFFFFF" width="224" height="354.923"/>
	<rect x="305.937" y="86.928" fill="#E2E2E2" width="194.496" height="63.923"/>
	<rect x="305.937" y="159.974" fill="#E2E2E2" width="194.496" height="63.923"/>
	<path fill="#1C0F4C" d="M369.185,99.428c0,1.933-1.567,3.5-3.5,3.5h-47c-1.933,0-3.5-1.567-3.5-3.5l0,0c0-1.933,1.567-3.5,3.5-3.5
		h47C367.618,95.928,369.185,97.495,369.185,99.428L369.185,99.428z"/>
	<path fill="#1C0F4C" d="M384.185,174.476c0,1.933-2.001,3.5-4.472,3.5h-60.056c-2.47,0-4.472-1.567-4.472-3.5l0,0
		c0-1.933,2.002-3.5,4.472-3.5h60.056C382.184,170.976,384.185,172.543,384.185,174.476L384.185,174.476z"/>
	<path fill="#CCCCCC" d="M478.685,112.668c0,1.802-1.059,3.262-2.365,3.262H318.048c-1.306,0-2.365-1.46-2.365-3.262l0,0
		c0-1.801,1.059-3.262,2.365-3.262H476.32C477.625,109.406,478.685,110.867,478.685,112.668L478.685,112.668z"/>
	<path fill="#CCCCCC" d="M486.684,124.675c0,1.802-1.111,3.262-2.481,3.262H318.165c-1.37,0-2.481-1.46-2.481-3.262l0,0
		c0-1.801,1.111-3.262,2.481-3.262h166.038C485.573,121.414,486.684,122.874,486.684,124.675L486.684,124.675z"/>
	<path fill="#CCCCCC" d="M450.685,136.683c0,1.802-0.877,3.262-1.958,3.262H317.642c-1.082,0-1.958-1.46-1.958-3.262l0,0
		c0-1.801,0.877-3.262,1.958-3.262h131.084C449.808,133.421,450.685,134.881,450.685,136.683L450.685,136.683z"/>
	<path fill="#CCCCCC" d="M478.685,200.42c0,1.802-1.059,3.262-2.365,3.262H318.048c-1.306,0-2.365-1.46-2.365-3.262l0,0
		c0-1.801,1.059-3.262,2.365-3.262H476.32C477.625,197.158,478.685,198.619,478.685,200.42L478.685,200.42z"/>
	<path fill="#CCCCCC" d="M419.685,212.427c0,1.802-0.676,3.262-1.509,3.262H317.192c-0.833,0-1.509-1.46-1.509-3.262l0,0
		c0-1.801,0.676-3.262,1.509-3.262h100.983C419.009,209.166,419.685,210.626,419.685,212.427L419.685,212.427z"/>
	<path fill="#CCCCCC" d="M450.685,188.411c0,1.802-0.877,3.262-1.958,3.262H317.642c-1.082,0-1.958-1.46-1.958-3.262l0,0
		c0-1.801,0.877-3.262,1.958-3.262h131.084C449.808,185.149,450.685,186.61,450.685,188.411L450.685,188.411z"/>
	<rect x="583.366" y="69.928" fill="#FFFFFF" width="223.99" height="354.923"/>
	<rect x="598.118" y="86.928" fill="#E2E2E2" width="194.486" height="63.923"/>
	<rect x="598.118" y="158.973" fill="#E2E2E2" width="194.486" height="88.416"/>
	<rect x="598.118" y="257.036" fill="#E2E2E2" width="194.486" height="63.923"/>
	<path fill="#2ECC7D" d="M661.363,99.428c0,1.933-1.567,3.5-3.5,3.5h-46.998c-1.933,0-3.5-1.567-3.5-3.5l0,0
		c0-1.933,1.567-3.5,3.5-3.5h46.998C659.796,95.928,661.363,97.495,661.363,99.428L661.363,99.428z"/>
	<path fill="#2ECC7D" d="M645.363,173.476c0,1.933-1.102,3.5-2.462,3.5h-33.073c-1.36,0-2.463-1.567-2.463-3.5l0,0
		c0-1.933,1.103-3.5,2.463-3.5h33.073C644.262,169.976,645.363,171.542,645.363,173.476L645.363,173.476z"/>
	<path fill="#2ECC7D" d="M676.362,271.538c0,1.933-2.001,3.5-4.472,3.5h-60.053c-2.471,0-4.473-1.567-4.473-3.5l0,0
		c0-1.933,2.002-3.5,4.473-3.5h60.053C674.361,268.038,676.362,269.605,676.362,271.538L676.362,271.538z"/>
	<path fill="#CCCCCC" d="M770.857,112.668c0,1.802-1.059,3.262-2.364,3.262H610.229c-1.306,0-2.365-1.46-2.365-3.262l0,0
		c0-1.801,1.06-3.262,2.365-3.262h158.264C769.799,109.406,770.857,110.867,770.857,112.668L770.857,112.668z"/>
	<path fill="#CCCCCC" d="M778.856,124.675c0,1.802-1.111,3.262-2.481,3.262H610.346c-1.37,0-2.481-1.46-2.481-3.262l0,0
		c0-1.801,1.111-3.262,2.481-3.262h166.029C777.745,121.414,778.856,122.874,778.856,124.675L778.856,124.675z"/>
	<rect x="598.118" y="330.082" fill="#E2E2E2" width="194.486" height="63.923"/>
	<path fill="#2ECC7D" d="M661.363,342.582c0,1.933-1.567,3.5-3.5,3.5h-46.998c-1.933,0-3.5-1.567-3.5-3.5l0,0
		c0-1.933,1.567-3.5,3.5-3.5h46.998C659.796,339.082,661.363,340.648,661.363,342.582L661.363,342.582z"/>
	<path fill="#CCCCCC" d="M770.857,355.822c0,1.802-1.059,3.262-2.364,3.262H610.229c-1.306,0-2.365-1.46-2.365-3.262l0,0
		c0-1.801,1.06-3.262,2.365-3.262h158.264C769.799,352.56,770.857,354.021,770.857,355.822L770.857,355.822z"/>
	<path fill="#CCCCCC" d="M778.856,367.829c0,1.802-1.111,3.262-2.481,3.262H610.346c-1.37,0-2.481-1.46-2.481-3.262l0,0
		c0-1.801,1.111-3.262,2.481-3.262h166.029C777.745,364.567,778.856,366.028,778.856,367.829L778.856,367.829z"/>
	<path fill="#CCCCCC" d="M742.859,136.683c0,1.802-0.877,3.262-1.959,3.262H609.823c-1.082,0-1.959-1.46-1.959-3.262l0,0
		c0-1.801,0.877-3.262,1.959-3.262H740.9C741.982,133.421,742.859,134.881,742.859,136.683L742.859,136.683z"/>
	<path fill="#CCCCCC" d="M770.857,185.714c0,1.802-1.059,3.262-2.364,3.262H610.229c-1.306,0-2.365-1.46-2.365-3.262l0,0
		c0-1.801,1.06-3.262,2.365-3.262h158.264C769.799,182.452,770.857,183.913,770.857,185.714L770.857,185.714z"/>
	<path fill="#CCCCCC" d="M770.857,221.737c0,1.802-1.059,3.262-2.364,3.262H610.229c-1.306,0-2.365-1.46-2.365-3.262l0,0
		c0-1.801,1.06-3.262,2.365-3.262h158.264C769.799,218.476,770.857,219.936,770.857,221.737L770.857,221.737z"/>
	<path fill="#CCCCCC" d="M711.86,233.745c0,1.802-0.676,3.262-1.509,3.262H609.373c-0.833,0-1.509-1.46-1.509-3.262l0,0
		c0-1.801,0.676-3.262,1.509-3.262h100.979C711.185,230.483,711.86,231.943,711.86,233.745L711.86,233.745z"/>
	<path fill="#CCCCCC" d="M778.856,197.721c0,1.802-1.111,3.262-2.481,3.262H610.346c-1.37,0-2.481-1.46-2.481-3.262l0,0
		c0-1.801,1.111-3.262,2.481-3.262h166.029C777.745,194.459,778.856,195.92,778.856,197.721L778.856,197.721z"/>
	<path fill="#CCCCCC" d="M742.859,209.729c0,1.802-0.877,3.262-1.959,3.262H609.823c-1.082,0-1.959-1.46-1.959-3.262l0,0
		c0-1.801,0.877-3.262,1.959-3.262H740.9C741.982,206.467,742.859,207.927,742.859,209.729L742.859,209.729z"/>
	<path fill="#CCCCCC" d="M770.857,297.482c0,1.802-1.059,3.262-2.364,3.262H610.229c-1.306,0-2.365-1.46-2.365-3.262l0,0
		c0-1.801,1.06-3.262,2.365-3.262h158.264C769.799,294.22,770.857,295.681,770.857,297.482L770.857,297.482z"/>
	<path fill="#CCCCCC" d="M711.86,309.489c0,1.802-0.676,3.262-1.509,3.262H609.373c-0.833,0-1.509-1.46-1.509-3.262l0,0
		c0-1.801,0.676-3.262,1.509-3.262h100.979C711.185,306.228,711.86,307.688,711.86,309.489L711.86,309.489z"/>
	<path fill="#CCCCCC" d="M742.859,285.473c0,1.802-0.877,3.262-1.959,3.262H609.823c-1.082,0-1.959-1.46-1.959-3.262l0,0
		c0-1.801,0.877-3.262,1.959-3.262H740.9C741.982,282.211,742.859,283.672,742.859,285.473L742.859,285.473z"/>
	<g>
		<path fill="#FFFFFF" d="M330.301,50V33.316h1.624V50H330.301z"/>
		<path fill="#FFFFFF" d="M337.783,36.352V50h-1.624V33.293h1.271L348.49,47.2V33.316h1.624V50h-1.412L337.783,36.352z"/>
		<path fill="#FFFFFF" d="M354.349,50V33.293h6.918c0.722,0,1.384,0.153,1.989,0.459c0.604,0.306,1.125,0.706,1.564,1.2
			s0.78,1.055,1.024,1.682c0.243,0.628,0.365,1.263,0.365,1.906c0,0.69-0.114,1.353-0.341,1.988
			c-0.228,0.635-0.553,1.196-0.977,1.683s-0.93,0.878-1.518,1.176c-0.588,0.298-1.244,0.447-1.965,0.447h-5.436V50H354.349z
			 M355.973,42.376h5.342c0.486,0,0.929-0.106,1.33-0.318c0.4-0.211,0.741-0.494,1.023-0.847c0.282-0.353,0.502-0.761,0.659-1.224
			s0.235-0.945,0.235-1.447c0-0.518-0.09-1.008-0.271-1.471c-0.181-0.462-0.423-0.867-0.729-1.212
			c-0.306-0.345-0.667-0.616-1.083-0.812c-0.416-0.196-0.851-0.294-1.306-0.294h-5.201V42.376z"/>
		<path fill="#FFFFFF" d="M368.961,50V33.293h7.036c0.722,0,1.389,0.153,2,0.459c0.612,0.306,1.137,0.706,1.577,1.2
			c0.439,0.494,0.78,1.055,1.023,1.682c0.243,0.628,0.365,1.263,0.365,1.906c0,0.612-0.09,1.196-0.271,1.753
			c-0.181,0.557-0.436,1.059-0.765,1.506c-0.329,0.447-0.722,0.824-1.176,1.129c-0.455,0.306-0.965,0.514-1.53,0.624L381.339,50
			h-1.859l-3.953-6.165h-4.942V50H368.961z M370.585,42.376h5.483c0.486,0,0.93-0.106,1.33-0.318c0.4-0.211,0.741-0.498,1.023-0.859
			c0.282-0.36,0.502-0.768,0.659-1.224c0.156-0.455,0.235-0.933,0.235-1.435s-0.09-0.984-0.271-1.447
			c-0.181-0.462-0.423-0.867-0.729-1.212c-0.306-0.345-0.667-0.62-1.083-0.824c-0.416-0.204-0.851-0.306-1.306-0.306h-5.342V42.376z
			"/>
		<path fill="#FFFFFF" d="M391.174,50.118c-1.161,0-2.224-0.239-3.188-0.718c-0.964-0.479-1.792-1.114-2.482-1.906
			s-1.224-1.698-1.6-2.718c-0.376-1.02-0.564-2.063-0.564-3.13c0-1.114,0.2-2.18,0.6-3.2c0.4-1.02,0.953-1.921,1.659-2.706
			c0.706-0.784,1.537-1.408,2.494-1.871c0.957-0.462,1.992-0.694,3.106-0.694c1.161,0,2.224,0.247,3.188,0.741
			c0.965,0.494,1.789,1.141,2.471,1.941c0.682,0.8,1.211,1.706,1.588,2.718c0.377,1.012,0.565,2.043,0.565,3.094
			c0,1.114-0.2,2.181-0.6,3.2c-0.4,1.02-0.949,1.918-1.647,2.694c-0.698,0.777-1.526,1.396-2.482,1.859
			C393.324,49.886,392.288,50.118,391.174,50.118z M384.986,41.646c0,0.91,0.149,1.785,0.447,2.624
			c0.298,0.839,0.721,1.585,1.271,2.236c0.549,0.651,1.2,1.168,1.953,1.553c0.753,0.385,1.592,0.577,2.518,0.577
			c0.941,0,1.796-0.204,2.565-0.612c0.769-0.408,1.419-0.941,1.953-1.6c0.533-0.659,0.945-1.404,1.235-2.235
			c0.29-0.832,0.436-1.679,0.436-2.542c0-0.91-0.153-1.784-0.459-2.624c-0.306-0.839-0.733-1.581-1.283-2.224
			c-0.549-0.643-1.2-1.157-1.953-1.542c-0.753-0.384-1.585-0.577-2.495-0.577c-0.941,0-1.796,0.2-2.565,0.6
			c-0.769,0.4-1.42,0.93-1.953,1.588c-0.534,0.659-0.945,1.404-1.235,2.235C385.131,39.937,384.986,40.784,384.986,41.646z"/>
		<path fill="#FFFFFF" d="M414.282,47.576c-1.553,1.694-3.334,2.542-5.342,2.542c-1.129,0-2.169-0.243-3.118-0.729
			c-0.949-0.486-1.773-1.129-2.471-1.93c-0.698-0.8-1.244-1.706-1.636-2.718s-0.588-2.051-0.588-3.118c0-1.114,0.192-2.18,0.576-3.2
			c0.384-1.02,0.918-1.918,1.6-2.694c0.683-0.776,1.498-1.396,2.447-1.859c0.949-0.462,1.98-0.694,3.094-0.694
			c0.816,0,1.557,0.09,2.224,0.271c0.667,0.181,1.263,0.432,1.789,0.753c0.525,0.321,0.984,0.706,1.376,1.153
			s0.722,0.938,0.988,1.471l-1.271,0.847c-0.549-1.036-1.263-1.796-2.142-2.283c-0.878-0.486-1.875-0.729-2.988-0.729
			c-0.926,0-1.761,0.196-2.506,0.588c-0.746,0.392-1.381,0.914-1.906,1.565s-0.929,1.396-1.212,2.235
			c-0.282,0.839-0.423,1.706-0.423,2.6c0,0.941,0.161,1.835,0.482,2.683c0.321,0.847,0.765,1.588,1.33,2.224
			c0.564,0.635,1.227,1.141,1.988,1.518c0.761,0.376,1.588,0.565,2.482,0.565c0.957,0,1.867-0.224,2.729-0.671
			c0.863-0.447,1.694-1.149,2.495-2.106v-2.8h-3.694v-1.271h5.106V50h-1.412V47.576z"/>
		<path fill="#FFFFFF" d="M419.176,50V33.293h7.036c0.722,0,1.389,0.153,2,0.459c0.612,0.306,1.137,0.706,1.577,1.2
			c0.439,0.494,0.78,1.055,1.023,1.682c0.243,0.628,0.365,1.263,0.365,1.906c0,0.612-0.09,1.196-0.271,1.753
			c-0.181,0.557-0.436,1.059-0.765,1.506c-0.329,0.447-0.722,0.824-1.176,1.129c-0.455,0.306-0.965,0.514-1.53,0.624L431.553,50
			h-1.859l-3.953-6.165h-4.942V50H419.176z M420.799,42.376h5.483c0.486,0,0.93-0.106,1.33-0.318c0.4-0.211,0.741-0.498,1.023-0.859
			c0.282-0.36,0.502-0.768,0.659-1.224c0.156-0.455,0.235-0.933,0.235-1.435s-0.09-0.984-0.271-1.447
			c-0.181-0.462-0.423-0.867-0.729-1.212c-0.306-0.345-0.667-0.62-1.083-0.824c-0.416-0.204-0.851-0.306-1.306-0.306h-5.342V42.376z
			"/>
		<path fill="#FFFFFF" d="M445.93,48.541V50h-11.224V33.293h11.013v1.459h-9.389v6.024h8.189v1.388h-8.189v6.377H445.93z"/>
		<path fill="#FFFFFF" d="M458.661,36.423c-0.471-0.533-1.102-0.965-1.894-1.294c-0.792-0.33-1.683-0.494-2.671-0.494
			c-1.491,0-2.573,0.279-3.248,0.835c-0.674,0.557-1.012,1.314-1.012,2.271c0,0.502,0.09,0.914,0.271,1.235
			c0.18,0.322,0.463,0.6,0.847,0.835s0.871,0.439,1.459,0.612c0.588,0.173,1.283,0.345,2.083,0.518
			c0.894,0.188,1.694,0.396,2.4,0.624c0.706,0.228,1.31,0.518,1.812,0.871c0.502,0.353,0.886,0.785,1.153,1.294
			c0.267,0.51,0.4,1.141,0.4,1.894c0,0.769-0.149,1.436-0.447,2c-0.298,0.564-0.714,1.035-1.247,1.412s-1.169,0.655-1.906,0.835
			c-0.738,0.18-1.538,0.271-2.4,0.271c-2.62,0-4.855-0.808-6.706-2.424l0.8-1.341c0.612,0.643,1.436,1.188,2.471,1.635
			c1.036,0.447,2.188,0.67,3.459,0.67c1.333,0,2.377-0.239,3.13-0.718c0.753-0.478,1.129-1.204,1.129-2.176
			c0-0.518-0.106-0.953-0.318-1.306c-0.211-0.353-0.529-0.659-0.953-0.917c-0.424-0.259-0.953-0.482-1.588-0.671
			c-0.635-0.188-1.369-0.376-2.2-0.564c-0.879-0.204-1.647-0.416-2.306-0.636c-0.659-0.219-1.212-0.494-1.659-0.823
			c-0.447-0.33-0.785-0.726-1.012-1.188c-0.228-0.462-0.341-1.031-0.341-1.706c0-0.769,0.145-1.455,0.435-2.059
			c0.29-0.604,0.698-1.106,1.224-1.506c0.525-0.4,1.153-0.706,1.882-0.917c0.729-0.212,1.533-0.318,2.412-0.318
			c1.098,0,2.083,0.169,2.953,0.506c0.871,0.338,1.659,0.812,2.365,1.424L458.661,36.423z"/>
		<path fill="#FFFFFF" d="M473.062,36.423c-0.471-0.533-1.102-0.965-1.894-1.294c-0.792-0.33-1.683-0.494-2.671-0.494
			c-1.491,0-2.573,0.279-3.248,0.835c-0.674,0.557-1.012,1.314-1.012,2.271c0,0.502,0.09,0.914,0.271,1.235
			c0.18,0.322,0.463,0.6,0.847,0.835s0.871,0.439,1.459,0.612c0.588,0.173,1.283,0.345,2.083,0.518
			c0.894,0.188,1.694,0.396,2.4,0.624c0.706,0.228,1.31,0.518,1.812,0.871c0.502,0.353,0.886,0.785,1.153,1.294
			c0.267,0.51,0.4,1.141,0.4,1.894c0,0.769-0.149,1.436-0.447,2c-0.298,0.564-0.714,1.035-1.247,1.412s-1.169,0.655-1.906,0.835
			c-0.738,0.18-1.538,0.271-2.4,0.271c-2.62,0-4.855-0.808-6.706-2.424l0.8-1.341c0.612,0.643,1.436,1.188,2.471,1.635
			c1.036,0.447,2.188,0.67,3.459,0.67c1.333,0,2.377-0.239,3.13-0.718c0.753-0.478,1.129-1.204,1.129-2.176
			c0-0.518-0.106-0.953-0.318-1.306c-0.211-0.353-0.529-0.659-0.953-0.917c-0.424-0.259-0.953-0.482-1.588-0.671
			c-0.635-0.188-1.369-0.376-2.2-0.564c-0.879-0.204-1.647-0.416-2.306-0.636c-0.659-0.219-1.212-0.494-1.659-0.823
			c-0.447-0.33-0.785-0.726-1.012-1.188c-0.228-0.462-0.341-1.031-0.341-1.706c0-0.769,0.145-1.455,0.435-2.059
			c0.29-0.604,0.698-1.106,1.224-1.506c0.525-0.4,1.153-0.706,1.882-0.917c0.729-0.212,1.533-0.318,2.412-0.318
			c1.098,0,2.083,0.169,2.953,0.506c0.871,0.338,1.659,0.812,2.365,1.424L473.062,36.423z"/>
	</g>
	<g>
		<path fill="#FFFFFF" d="M662.484,50V33.293h5.647c1.333,0,2.502,0.22,3.506,0.659c1.003,0.439,1.839,1.036,2.506,1.789
			c0.667,0.753,1.165,1.635,1.494,2.647c0.33,1.012,0.494,2.09,0.494,3.235c0,1.271-0.188,2.42-0.564,3.447
			c-0.376,1.028-0.91,1.906-1.6,2.635c-0.691,0.729-1.53,1.294-2.518,1.694s-2.094,0.6-3.318,0.6H662.484z M674.485,41.623
			c0-1.004-0.141-1.926-0.424-2.765c-0.282-0.839-0.694-1.564-1.235-2.176c-0.541-0.612-1.204-1.086-1.988-1.424
			c-0.785-0.337-1.687-0.506-2.706-0.506h-4.024v13.789h4.024c1.036,0,1.949-0.176,2.741-0.529s1.455-0.839,1.989-1.459
			c0.533-0.62,0.937-1.349,1.211-2.188C674.348,43.525,674.485,42.611,674.485,41.623z"/>
		<path fill="#FFFFFF" d="M686.156,50.118c-1.161,0-2.224-0.239-3.188-0.718c-0.964-0.479-1.792-1.114-2.482-1.906
			s-1.224-1.698-1.6-2.718c-0.376-1.02-0.564-2.063-0.564-3.13c0-1.114,0.2-2.18,0.6-3.2c0.4-1.02,0.953-1.921,1.659-2.706
			c0.706-0.784,1.537-1.408,2.494-1.871c0.957-0.462,1.992-0.694,3.106-0.694c1.161,0,2.224,0.247,3.188,0.741
			c0.965,0.494,1.789,1.141,2.471,1.941c0.682,0.8,1.211,1.706,1.588,2.718c0.377,1.012,0.565,2.043,0.565,3.094
			c0,1.114-0.2,2.181-0.6,3.2c-0.4,1.02-0.949,1.918-1.647,2.694c-0.698,0.777-1.526,1.396-2.482,1.859
			C688.306,49.886,687.27,50.118,686.156,50.118z M679.968,41.646c0,0.91,0.149,1.785,0.447,2.624
			c0.298,0.839,0.721,1.585,1.271,2.236c0.549,0.651,1.2,1.168,1.953,1.553c0.753,0.385,1.592,0.577,2.518,0.577
			c0.941,0,1.796-0.204,2.565-0.612c0.769-0.408,1.419-0.941,1.953-1.6c0.533-0.659,0.945-1.404,1.235-2.235
			c0.29-0.832,0.436-1.679,0.436-2.542c0-0.91-0.153-1.784-0.459-2.624c-0.306-0.839-0.733-1.581-1.283-2.224
			c-0.549-0.643-1.2-1.157-1.953-1.542c-0.753-0.384-1.585-0.577-2.495-0.577c-0.941,0-1.796,0.2-2.565,0.6
			c-0.769,0.4-1.42,0.93-1.953,1.588c-0.534,0.659-0.945,1.404-1.235,2.235C680.113,39.937,679.968,40.784,679.968,41.646z"/>
		<path fill="#FFFFFF" d="M698.792,36.352V50h-1.624V33.293h1.271L709.499,47.2V33.316h1.624V50h-1.412L698.792,36.352z"/>
		<path fill="#FFFFFF" d="M726.582,48.541V50h-11.224V33.293h11.013v1.459h-9.389v6.024h8.189v1.388h-8.189v6.377H726.582z"/>
	</g>
</g>
</svg>
