<?xml version="1.0" encoding="utf-8"?>
<!-- Generator: Adobe Illustrator 21.1.0, SVG Export Plug-In . SVG Version: 6.00 Build 0)  -->
<svg version="1.1" id="Layer_1" xmlns="http://www.w3.org/2000/svg" xmlns:xlink="http://www.w3.org/1999/xlink" x="0px" y="0px"
	 viewBox="0 0 24 24" style="enable-background:new 0 0 24 24;" xml:space="preserve">
<style type="text/css">
	.st0{fill:#FFFFFF;}
</style>
<path class="st0" d="M12.3,11.6c-3.2,0-5.8-2.6-5.8-5.8S9.1,0,12.3,0s5.8,2.6,5.8,5.8S15.5,11.6,12.3,11.6z M12.3,1.4
	c-2.4,0-4.4,2-4.4,4.4s2,4.4,4.4,4.4s4.4-2,4.4-4.4S14.8,1.4,12.3,1.4z"/>
<path class="st0" d="M22.3,24H21c0-4.8-3.9-8.7-8.7-8.7S3.7,19.2,3.7,24H2.3c0-5.5,4.5-10,10-10S22.3,18.5,22.3,24z"/>
</svg>
